<?xml version="1.0" encoding="utf-8"?>
<!-- Generator: Adobe Illustrator 16.0.0, SVG Export Plug-In . SVG Version: 6.00 Build 0)  -->
<!DOCTYPE svg PUBLIC "-//W3C//DTD SVG 1.1//EN" "http://www.w3.org/Graphics/SVG/1.1/DTD/svg11.dtd">
<svg version="1.1" id="Layer_1" xmlns="http://www.w3.org/2000/svg" xmlns:xlink="http://www.w3.org/1999/xlink" x="0px" y="0px"
	 width="270px" height="120px" viewBox="0 0 270 120" enable-background="new 0 0 270 120" xml:space="preserve">
<g>
	<path fill="#D0242E" d="M31.207,90.469c0,7.58,6.144,13.727,13.72,13.727h199.338c7.582,0,13.728-6.146,13.728-13.727v-49.36
		c0-7.568-6.146-13.717-13.728-13.717L44.927,11.5c-7.576,0-13.72,6.146-13.72,13.729V90.469z"/>
</g>
<g enable-background="new    ">
	<path d="M66.142,56.052c-0.84-1.96-2.2-2.8-3.439-2.8h-0.8v-1.6H78.34v1.6h-0.8c-1.2,0-2.04,0.56-2.04,1.6
		c0,0.8,0.28,1.84,0.6,2.68l3.679,9.438l3.239-8.039c0.76-1.919,1.12-2.839,1.12-3.879c0-1.16-0.84-1.8-2.2-1.8h-0.52v-1.6h10.678
		v1.6h-0.8c-1.24,0-3.16,0.8-4.079,2.8L76.5,79.647L66.142,56.052z"/>
	<path d="M89.903,65.25c0-8.039,4.799-14.397,13.598-14.397c8.799,0,13.598,6.358,13.598,14.397s-4.799,14.397-13.598,14.397
		C94.702,79.647,89.903,73.289,89.903,65.25z M107.46,65.25c0-9.958-1.68-12.398-3.959-12.398c-2.279,0-3.959,2.44-3.959,12.398
		s1.68,12.397,3.959,12.397C105.78,77.647,107.46,75.208,107.46,65.25z"/>
	<path d="M118.303,78.848v-1.6h0.8c1.24,0,2.4-0.72,2.4-2.399V55.651c0-1.6-1.16-2.399-2.4-2.399h-0.8v-1.6h15.797v1.6h-0.8
		c-1.24,0-2.399,0.76-2.399,2.399v18.997c0,1.359,0.76,2.199,2.279,2.199c3.479,0,6.159-3.279,8.56-7.799h1.76l-2.4,9.799H118.303z"
		/>
	<path d="M145.502,78.848v-1.6h0.801c1.239,0,2.398-0.72,2.398-2.399V53.652c-1.439,0-4.639,1.039-7.238,7.798h-1.76l1.6-9.798
		h24.196l1.6,9.798h-1.76c-2.599-6.759-5.799-7.798-7.239-7.798v21.196c0,1.68,1.16,2.399,2.4,2.399h0.8v1.6H145.502z"/>
	<path d="M178.261,78.848v-1.6h0.8c1.199,0,2.16-0.64,2.16-1.68c0-0.88-0.24-1.76-0.521-2.6l-0.601-1.8h-7.598l-0.12,0.4
		c-0.72,1.959-1.12,2.839-1.12,3.879c0,1.16,0.84,1.8,2.199,1.8h0.521v1.6h-10.079v-1.6h0.601c1.239,0,3.199-0.44,4.079-2.8
		l6.719-17.557l-0.72-2.2c1.96-0.88,5.959-2.839,7.919-4.039l8.158,23.796c0.76,2.2,2.2,2.8,3.439,2.8h0.6v1.6H178.261z
		 M176.461,60.411l-3.199,8.758h6.158L176.461,60.411z"/>
	<path d="M227.298,78.447c0,0-2.52,0.801-6.519,0.801c-4.479,0-7.559-1.08-9.639-5.76l-2.76-6.198h-0.08v7.559
		c0,1.72,1.16,2.399,2.4,2.399h0.799v1.6h-15.797v-1.6h0.8c1.239,0,2.399-0.64,2.399-2.399V55.651c0-1.64-1.16-2.399-2.399-2.399
		h-0.8v-1.6h18.438c6.238,0,8.678,3.159,8.678,6.919c0,3.64-2.76,6.318-5.039,7.198l2.52,4.92c2.959,5.839,4.479,6.358,5.76,6.358
		c0.68,0,1.239-0.2,1.239-0.2V78.447z M208.301,53.652v10.238c0,0.72,0.4,1.199,1.439,1.199c0.881,0,2.76-1.199,2.76-5.719
		c0-5.039-1.799-5.719-3.199-5.719H208.301z"/>
</g>
</svg>
