<?xml version="1.0" encoding="utf-8"?>
<!-- Generator: Adobe Illustrator 16.0.0, SVG Export Plug-In . SVG Version: 6.00 Build 0)  -->
<!DOCTYPE svg PUBLIC "-//W3C//DTD SVG 1.1//EN" "http://www.w3.org/Graphics/SVG/1.1/DTD/svg11.dtd">
<svg version="1.1" id="Layer_1" xmlns="http://www.w3.org/2000/svg" xmlns:xlink="http://www.w3.org/1999/xlink" x="0px" y="0px"
	 width="270px" height="120px" viewBox="0 0 270 120" enable-background="new 0 0 270 120" xml:space="preserve">
<g>
	<path fill="#FFFFFF" d="M241.05,33.71c0-6.191-5.017-11.211-11.204-11.211L40.117,35.477c-6.191,0-11.209,5.021-11.209,11.201
		v40.308c0,6.19,5.018,11.209,11.209,11.209h189.729c6.188,0,11.204-5.02,11.204-11.209V33.71z"/>
	<g enable-background="new    ">
		<path d="M68.503,74.229c-1.339,0.817-4.409,1.471-6.858,1.471c-7.381,0-11.921-5.062-11.921-11.626
			c0-6.564,4.736-11.888,11.921-11.888c2.45,0,5.356,0.652,6.695,1.469v6.042h-1.274c-1.111-3.657-2.547-5.716-4.638-5.716
			c-2.482,0-4.833,1.959-4.833,10.092c0,8.132,2.973,9.83,4.833,9.83c2.091,0,3.69-2.058,4.801-5.715h1.274L68.503,74.229
			L68.503,74.229z"/>
		<path d="M70.465,63.941c0-6.564,3.919-11.756,11.104-11.756s11.104,5.191,11.104,11.756c0,6.565-3.919,11.757-11.104,11.757
			C74.385,75.698,70.465,70.507,70.465,63.941z M84.803,63.941c0-8.132-1.372-10.124-3.233-10.124s-3.233,1.992-3.233,10.124
			s1.372,10.123,3.233,10.123C83.432,74.064,84.803,72.073,84.803,63.941z"/>
		<path d="M109.497,75.046v-1.307h0.653c1.013,0,2.024-0.489,1.96-1.959l-0.588-13.88h-0.065l-6.14,17.799l-6.989-16.362h-0.065
			L97.74,71.78c-0.065,1.274,0.947,1.959,1.958,1.959h0.653v1.307h-7.021v-1.307h0.654c1.012,0,1.894-0.653,1.959-1.959
			l0.653-15.676c0.065-1.308-0.947-1.96-1.959-1.96h-0.653v-1.307h9.765l3.952,10.157h0.065L111,52.838h10.745v1.307h-0.653
			c-1.143,0-2.024,0.719-1.96,1.96l0.653,15.676c0.065,1.47,0.947,1.959,1.959,1.959h0.653v1.307H109.497z"/>
		<path d="M124.525,75.046v-1.307h0.653c1.013,0,1.96-0.686,1.96-1.959V56.103c0-1.241-0.947-1.959-1.96-1.959h-0.653v-1.306h18.615
			l1.633,7.021h-1.438c-1.959-3.691-3.821-5.389-6.662-5.389h-1.861v8.523h2.71c1.339,0,1.959-0.945,1.959-1.958v-0.654h1.471v6.825
			h-1.471v-0.653c0-1.012-0.62-1.959-1.959-1.959h-2.71v6.858c0,1.11,0.523,1.959,1.861,1.959c2.841,0,5.486-2.318,7.642-6.369
			h1.438l-1.96,8.003H124.525L124.525,75.046z"/>
		<path d="M166.658,74.229c-1.34,0.817-4.408,1.471-6.857,1.471c-1.012,0-1.959-0.099-2.842-0.262l-0.521,1.34
			c0.686-0.293,1.437-0.49,2.285-0.49c1.926,0,3.625,1.012,3.625,3.233c0,1.861-1.795,3.364-4.18,3.364
			c-2.319,0-3.363-0.882-3.363-2.024c0-0.687,0.357-1.405,1.371-1.405c0.688,0,1.209,0.49,1.209,1.176
			c0,0.62,0.26,1.307,1.011,1.307c0.524,0,1.241-0.523,1.241-1.503c0-1.471-0.783-2.318-2.318-2.318c-0.522,0-1.24,0.195-1.601,0.49
			l-1.077-0.425l1.176-3.038c-4.996-1.47-7.937-5.78-7.937-11.071c0-6.564,4.735-11.889,11.921-11.889
			c2.449,0,5.356,0.654,6.695,1.471v6.041h-1.274c-1.11-3.658-2.547-5.552-4.638-5.552c-2.482,0-4.834,1.796-4.834,9.928
			s2.973,9.667,4.834,9.667c2.091,0,3.69-1.894,4.801-5.552h1.273V74.229L166.658,74.229z"/>
		<path d="M179.692,75.046v-1.307h0.654c0.979,0,1.763-0.523,1.763-1.371c0-0.72-0.197-1.438-0.425-2.124l-0.489-1.47h-6.207
			l-0.098,0.327c-0.588,1.6-0.914,2.318-0.914,3.167c0,0.947,0.686,1.47,1.797,1.47h0.425v1.308h-8.229v-1.308h0.489
			c1.013,0,2.612-0.359,3.331-2.286l5.487-14.337l-0.589-1.798c1.601-0.717,4.866-2.317,6.467-3.298l6.663,19.433
			c0.62,1.796,1.796,2.286,2.809,2.286h0.489v1.308H179.692L179.692,75.046z M178.223,59.99l-2.613,7.151h5.031L178.223,59.99z"/>
		<path d="M219.736,74.719c0,0-2.058,0.653-5.323,0.653c-3.657,0-6.173-0.882-7.872-4.703l-2.253-5.062h-0.063v6.173
			c0,1.404,0.945,1.959,1.957,1.959h0.654v1.307h-12.9v-1.307h0.652c1.014,0,1.961-0.523,1.961-1.959V56.103
			c0-1.339-0.947-1.959-1.961-1.959h-0.652v-1.306h15.056c5.095,0,7.087,2.579,7.087,5.649c0,2.973-2.254,5.159-4.115,5.879
			l2.059,4.018c2.416,4.767,3.657,5.191,4.702,5.191c0.557,0,1.013-0.163,1.013-0.163V74.719L219.736,74.719z M204.225,54.471v8.361
			c0,0.587,0.326,0.979,1.175,0.979c0.718,0,2.254-0.979,2.254-4.671c0-4.114-1.471-4.67-2.612-4.67L204.225,54.471L204.225,54.471z
			"/>
	</g>
</g>
</svg>
