<?xml version="1.0" encoding="utf-8"?>
<!-- Generator: Adobe Illustrator 16.0.0, SVG Export Plug-In . SVG Version: 6.00 Build 0)  -->
<!DOCTYPE svg PUBLIC "-//W3C//DTD SVG 1.1//EN" "http://www.w3.org/Graphics/SVG/1.1/DTD/svg11.dtd">
<svg version="1.1" id="Layer_1" xmlns="http://www.w3.org/2000/svg" xmlns:xlink="http://www.w3.org/1999/xlink" x="0px" y="0px"
	 width="270px" height="120px" viewBox="0 0 270 120" enable-background="new 0 0 270 120" xml:space="preserve">
<g>
	<path fill="#FFFFFF" d="M33.359,95.471c0,7.579,6.144,13.729,13.72,13.729h172.336c7.582,0,13.728-6.146,13.728-13.729V46.11
		c0-7.568-6.146-13.717-13.728-13.717L47.08,16.5c-7.576,0-13.72,6.146-13.72,13.729L33.359,95.471L33.359,95.471z"/>
	<path fill="#D0242E" d="M36.359,92.469c0,7.58,6.144,13.727,13.72,13.727h172.336c7.582,0,13.728-6.146,13.728-13.727v-49.36
		c0-7.568-6.146-13.717-13.728-13.717L50.08,13.5c-7.576,0-13.72,6.146-13.72,13.729L36.359,92.469L36.359,92.469z"/>
</g>
<g enable-background="new    ">
	<path fill="#FFFFFF" d="M65.99,55.052c-0.84-1.96-2.2-2.8-3.439-2.8h-0.8v-1.6h16.437v1.6h-0.8c-1.2,0-2.04,0.56-2.04,1.6
		c0,0.8,0.28,1.84,0.6,2.68l3.679,9.438l3.239-8.039c0.76-1.919,1.12-2.839,1.12-3.879c0-1.16-0.84-1.8-2.2-1.8h-0.52v-1.6h10.678
		v1.6h-0.8c-1.24,0-3.16,0.8-4.079,2.8L76.349,78.647L65.99,55.052z"/>
	<path fill="#FFFFFF" d="M89.751,64.25c0-8.039,4.799-14.397,13.598-14.397c8.799,0,13.598,6.358,13.598,14.397
		s-4.799,14.397-13.598,14.397C94.55,78.647,89.751,72.289,89.751,64.25z M107.308,64.25c0-9.958-1.68-12.398-3.959-12.398
		c-2.279,0-3.959,2.44-3.959,12.398s1.68,12.397,3.959,12.397C105.628,76.647,107.308,74.208,107.308,64.25z"/>
	<path fill="#FFFFFF" d="M124.95,77.848v-1.6h0.8c1.24,0,2.399-0.72,2.399-2.399V52.652c-1.439,0-4.639,1.039-7.239,7.798h-1.759
		l1.6-9.798h24.196l1.6,9.798h-1.76c-2.6-6.759-5.799-7.798-7.239-7.798v21.196c0,1.68,1.16,2.399,2.399,2.399h0.801v1.6H124.95z"/>
	<path fill="#FFFFFF" d="M157.709,77.848v-1.6h0.8c1.2,0,2.159-0.64,2.159-1.68c0-0.88-0.24-1.76-0.52-2.6l-0.6-1.8h-7.6l-0.119,0.4
		c-0.721,1.959-1.12,2.839-1.12,3.879c0,1.16,0.84,1.8,2.2,1.8h0.52v1.6h-10.078v-1.6h0.6c1.24,0,3.199-0.44,4.079-2.8l6.72-17.557
		l-0.721-2.2c1.96-0.88,5.959-2.839,7.919-4.039l8.159,23.796c0.76,2.2,2.199,2.8,3.439,2.8h0.6v1.6H157.709z M155.909,59.411
		l-3.2,8.758h6.16L155.909,59.411z"/>
	<path fill="#FFFFFF" d="M206.746,77.447c0,0-2.52,0.801-6.52,0.801c-4.479,0-7.559-1.08-9.639-5.76l-2.76-6.198h-0.079v7.559
		c0,1.72,1.159,2.399,2.399,2.399h0.8v1.6H175.15v-1.6h0.801c1.239,0,2.399-0.64,2.399-2.399V54.651c0-1.64-1.16-2.399-2.399-2.399
		h-0.801v-1.6h18.438c6.238,0,8.679,3.159,8.679,6.919c0,3.64-2.76,6.318-5.04,7.198l2.52,4.92c2.96,5.839,4.48,6.358,5.76,6.358
		c0.68,0,1.24-0.2,1.24-0.2V77.447z M187.749,52.652v10.238c0,0.72,0.399,1.199,1.439,1.199c0.88,0,2.76-1.199,2.76-5.719
		c0-5.039-1.8-5.719-3.2-5.719H187.749z"/>
</g>
</svg>
