<?xml version="1.0" encoding="utf-8"?>
<!-- Generator: Adobe Illustrator 16.0.0, SVG Export Plug-In . SVG Version: 6.00 Build 0)  -->
<!DOCTYPE svg PUBLIC "-//W3C//DTD SVG 1.1//EN" "http://www.w3.org/Graphics/SVG/1.1/DTD/svg11.dtd">
<svg version="1.1" id="Layer_1" xmlns="http://www.w3.org/2000/svg" xmlns:xlink="http://www.w3.org/1999/xlink" x="0px" y="0px"
	 width="270px" height="120px" viewBox="0 0 270 120" enable-background="new 0 0 270 120" xml:space="preserve">
<g>
	<g>
		<path fill="#FFFFFF" d="M32.934,90.295c0,7.58,6.144,13.727,13.72,13.727h172.336c7.582,0,13.728-6.146,13.728-13.727v-49.36
			c0-7.568-6.146-13.717-13.728-13.717L46.654,11.326c-7.576,0-13.72,6.146-13.72,13.729L32.934,90.295L32.934,90.295z"/>
	</g>
	<g>
		<path d="M60.328,54.166c-0.84-1.959-2.199-2.799-3.439-2.799h-0.8v-1.6h16.438v1.6h-0.8c-1.2,0-2.04,0.56-2.04,1.6
			c0,0.8,0.28,1.84,0.6,2.68l3.68,9.438l3.239-8.038c0.76-1.92,1.12-2.84,1.12-3.879c0-1.16-0.84-1.8-2.2-1.8h-0.52v-1.6h10.679v1.6
			h-0.801c-1.239,0-3.159,0.8-4.079,2.799L70.686,77.762L60.328,54.166z"/>
		<path d="M82.089,63.364c0-8.038,4.799-14.397,13.598-14.397c8.798,0,13.598,6.359,13.598,14.397c0,8.039-4.8,14.397-13.598,14.397
			C86.888,77.762,82.089,71.403,82.089,63.364z M99.646,63.364c0-9.958-1.68-12.397-3.959-12.397c-2.28,0-3.96,2.439-3.96,12.397
			c0,9.959,1.68,12.398,3.96,12.398C97.966,75.763,99.646,73.323,99.646,63.364z"/>
		<path d="M108.489,76.962v-1.6h0.8c1.239,0,2.399-0.72,2.399-2.399V53.766c0-1.6-1.16-2.399-2.399-2.399h-0.8v-1.6h15.797v1.6h-0.8
			c-1.24,0-2.399,0.76-2.399,2.399v18.997c0,1.36,0.76,2.2,2.279,2.2c3.479,0,6.159-3.28,8.559-7.799h1.76l-2.399,9.798H108.489z"/>
		<path d="M133.687,76.962v-1.6h0.8c1.241,0,2.4-0.72,2.4-2.399V51.767c-1.44,0-4.639,1.04-7.239,7.799h-1.76l1.6-9.798h24.197
			l1.6,9.798h-1.76c-2.6-6.759-5.799-7.799-7.239-7.799v21.196c0,1.68,1.16,2.399,2.399,2.399h0.8v1.6H133.687z"/>
		<path d="M164.446,76.962v-1.6h0.8c1.2,0,2.159-0.64,2.159-1.68c0-0.88-0.239-1.76-0.52-2.6l-0.6-1.8h-7.599l-0.12,0.4
			c-0.72,1.959-1.12,2.839-1.12,3.879c0,1.16,0.84,1.8,2.199,1.8h0.521v1.6h-10.078v-1.6h0.6c1.24,0,3.199-0.439,4.079-2.8
			l6.719-17.557l-0.72-2.199c1.96-0.88,5.959-2.84,7.919-4.04l8.158,23.795c0.76,2.2,2.2,2.8,3.439,2.8h0.601v1.6H164.446z
			 M162.646,58.525l-3.199,8.759h6.159L162.646,58.525z"/>
		<path d="M211.482,76.562c0,0-2.52,0.8-6.519,0.8c-4.479,0-7.559-1.08-9.639-5.759l-2.759-6.199h-0.08v7.559
			c0,1.72,1.159,2.399,2.399,2.399h0.8v1.6h-15.797v-1.6h0.8c1.239,0,2.399-0.64,2.399-2.399V53.766c0-1.64-1.16-2.399-2.399-2.399
			h-0.8v-1.6h18.437c6.239,0,8.679,3.159,8.679,6.919c0,3.639-2.76,6.319-5.039,7.199l2.52,4.919
			c2.959,5.839,4.479,6.358,5.759,6.358c0.68,0,1.239-0.199,1.239-0.199V76.562z M192.486,51.767v10.238
			c0,0.72,0.399,1.199,1.439,1.199c0.88,0,2.76-1.199,2.76-5.718c0-5.04-1.8-5.719-3.199-5.719H192.486z"/>
	</g>
</g>
</svg>
