<?xml version="1.0" encoding="utf-8"?>
<!-- Generator: Adobe Illustrator 16.0.0, SVG Export Plug-In . SVG Version: 6.00 Build 0)  -->
<!DOCTYPE svg PUBLIC "-//W3C//DTD SVG 1.1//EN" "http://www.w3.org/Graphics/SVG/1.1/DTD/svg11.dtd">
<svg version="1.1" id="Layer_1" xmlns="http://www.w3.org/2000/svg" xmlns:xlink="http://www.w3.org/1999/xlink" x="0px" y="0px"
	 width="270px" height="120px" viewBox="0 0 270 120" enable-background="new 0 0 270 120" xml:space="preserve">
<g>
	<path d="M19.359,92.469c0,7.58,6.144,13.727,13.72,13.727h206.918c7.582,0,13.728-6.146,13.728-13.727v-49.36
		c0-7.568-6.146-13.717-13.728-13.717L33.079,13.5c-7.576,0-13.72,6.146-13.72,13.729V92.469z"/>
</g>
<g>
	<path fill="#D0242E" d="M71.544,77.447c0,0-2.52,0.801-6.519,0.801c-4.479,0-7.559-1.08-9.638-5.76l-2.76-6.198h-0.08v7.56
		c0,1.719,1.16,2.398,2.399,2.398h0.8v1.6H39.949v-1.6h0.8c1.24,0,2.4-0.641,2.4-2.398V54.651c0-1.64-1.16-2.399-2.4-2.399h-0.8
		v-1.6h18.437c6.239,0,8.679,3.159,8.679,6.919c0,3.64-2.76,6.318-5.04,7.199l2.52,4.92c2.959,5.838,4.479,6.357,5.759,6.357
		c0.68,0,1.24-0.199,1.24-0.199V77.447z M52.547,52.652v10.239c0,0.719,0.4,1.198,1.439,1.198c0.88,0,2.76-1.198,2.76-5.719
		c0-5.039-1.8-5.719-3.2-5.719L52.547,52.652L52.547,52.652z"/>
	<path fill="#D0242E" d="M70.949,77.848v-1.6h0.8c1.24,0,2.4-0.84,2.4-2.398V54.651c0-1.52-1.16-2.399-2.4-2.399h-0.8v-1.6h22.796
		l2,8.599h-1.76c-2.399-4.52-4.679-6.599-8.159-6.599h-2.279V63.09h3.319c1.64,0,2.399-1.158,2.399-2.398v-0.8h1.8v8.358h-1.8v-0.8
		c0-1.239-0.76-2.399-2.399-2.399h-3.319v8.398c0,1.36,0.64,2.399,2.279,2.399c3.479,0,6.719-2.84,9.358-7.8h1.76l-2.399,9.8H70.949
		L70.949,77.848z"/>
	<path fill="#D0242E" d="M100.789,55.052c-0.84-1.96-2.2-2.8-3.439-2.8h-0.8v-1.6h16.437v1.6h-0.8c-1.2,0-2.04,0.56-2.04,1.6
		c0,0.8,0.28,1.84,0.6,2.68l3.679,9.438l3.239-8.04c0.76-1.919,1.12-2.839,1.12-3.879c0-1.16-0.84-1.8-2.2-1.8h-0.52v-1.6h10.678
		v1.6h-0.8c-1.24,0-3.16,0.8-4.079,2.8l-10.718,23.597L100.789,55.052z"/>
	<path fill="#D0242E" d="M127.55,77.848v-1.6h0.8c1.24,0,2.4-0.88,2.4-2.398V54.651c0-1.6-1.16-2.399-2.4-2.399h-0.8v-1.6h15.798
		v1.6h-0.801c-1.238,0-2.398,0.8-2.398,2.399v19.197c0,1.721,1.16,2.399,2.398,2.399h0.801v1.601H127.55L127.55,77.848z"/>
	<path fill="#D0242E" d="M163.188,58.65c-1.801-4.239-4.16-6.398-6.64-6.398c-1.84,0-3.438,1.359-3.438,3.119
		c0,2.16,0.959,3.16,4.56,4.399c5.078,1.759,8.878,4.359,8.878,9.559c0,6.119-6.117,9.317-11.758,9.317
		c-4.279,0-7.639-1.199-9.038-2v-6.799h1.761c1.799,3.561,4.278,6.399,7.758,6.399c2.399,0,3.64-1.479,3.64-3.239
		c0-2-1.438-3.24-4.199-4.359c-5.399-2.199-8.759-4.799-8.759-9.758c0-5.159,4.398-9.038,11.238-9.038c3.199,0,6.119,1,7.759,1.999
		v6.799H163.188L163.188,58.65z"/>
	<path fill="#D0242E" d="M180.307,77.848v-1.6h0.801c1.199,0,2.16-0.641,2.16-1.68c0-0.881-0.24-1.76-0.521-2.601l-0.6-1.8h-7.6
		l-0.12,0.4c-0.72,1.959-1.118,2.839-1.118,3.879c0,1.16,0.84,1.8,2.198,1.8h0.521v1.601h-10.078v-1.601h0.6
		c1.24,0,3.199-0.44,4.08-2.8l6.719-17.557l-0.721-2.2c1.961-0.88,5.959-2.839,7.92-4.039l8.158,23.796
		c0.76,2.199,2.199,2.8,3.439,2.8h0.6v1.601H180.307L180.307,77.848z M178.508,59.411l-3.199,8.758h6.158L178.508,59.411z"/>
	<path fill="#D0242E" d="M229.344,77.447c0,0-2.52,0.801-6.519,0.801c-4.479,0-7.56-1.08-9.638-5.76l-2.761-6.198h-0.079v7.56
		c0,1.719,1.159,2.398,2.398,2.398h0.8v1.6H197.75v-1.6h0.799c1.24,0,2.4-0.641,2.4-2.398V54.651c0-1.64-1.16-2.399-2.4-2.399
		h-0.799v-1.6h18.438c6.238,0,8.679,3.159,8.679,6.919c0,3.64-2.761,6.318-5.039,7.199l2.521,4.92
		c2.959,5.838,4.479,6.357,5.758,6.357c0.681,0,1.24-0.199,1.24-0.199v1.6H229.344z M210.348,52.652v10.239
		c0,0.719,0.4,1.198,1.439,1.198c0.88,0,2.76-1.198,2.76-5.719c0-5.039-1.8-5.719-3.199-5.719L210.348,52.652L210.348,52.652z"/>
</g>
</svg>
