<?xml version="1.0" encoding="utf-8"?>
<!-- Generator: Adobe Illustrator 16.0.0, SVG Export Plug-In . SVG Version: 6.00 Build 0)  -->
<!DOCTYPE svg PUBLIC "-//W3C//DTD SVG 1.1//EN" "http://www.w3.org/Graphics/SVG/1.1/DTD/svg11.dtd">
<svg version="1.1" id="Layer_1" xmlns="http://www.w3.org/2000/svg" xmlns:xlink="http://www.w3.org/1999/xlink" x="0px" y="0px"
	 width="270px" height="120px" viewBox="0 0 270 120" enable-background="new 0 0 270 120" xml:space="preserve">
<path fill="#FFFFFF" d="M2.907,95.47c0,7.58,6.144,13.728,13.72,13.728h232.34c7.582,0,13.727-6.146,13.727-13.728V46.11
	c0-7.568-6.145-13.717-13.727-13.717L16.627,16.5c-7.576,0-13.72,6.146-13.72,13.729V95.47z"/>
<path fill="#D0242E" d="M5.907,92.469c0,7.58,6.144,13.727,13.72,13.727h232.34c7.582,0,13.727-6.146,13.727-13.727v-49.36
	c0-7.568-6.145-13.717-13.727-13.717L19.627,13.5c-7.576,0-13.72,6.146-13.72,13.729V92.469z"/>
<g enable-background="new    ">
	<path fill="#FFFFFF" d="M54.396,76.848c-1.64,1-5.399,1.8-8.398,1.8c-9.039,0-14.598-6.199-14.598-14.237
		c0-8.039,5.799-14.558,14.598-14.558c3,0,6.559,0.8,8.199,1.8v7.398h-1.56c-1.36-4.479-3.119-6.999-5.679-6.999
		c-3.04,0-5.919,2.399-5.919,12.358c0,9.958,3.64,12.038,5.919,12.038c2.56,0,4.519-2.52,5.879-6.999h1.56V76.848z"/>
	<path fill="#FFFFFF" d="M56.799,64.25c0-8.039,4.799-14.397,13.598-14.397c8.799,0,13.598,6.358,13.598,14.397
		s-4.799,14.397-13.598,14.397C61.599,78.647,56.799,72.289,56.799,64.25z M74.356,64.25c0-9.958-1.68-12.398-3.959-12.398
		c-2.279,0-3.959,2.44-3.959,12.398s1.68,12.397,3.959,12.397C72.677,76.647,74.356,74.208,74.356,64.25z"/>
	<path fill="#FFFFFF" d="M104.596,77.848v-1.6h0.8c1.24,0,2.479-0.6,2.4-2.399l-0.72-16.997h-0.08l-7.519,21.796l-8.559-20.036
		h-0.08l-0.64,15.237c-0.08,1.56,1.16,2.399,2.399,2.399h0.8v1.6H84.8v-1.6h0.8c1.24,0,2.319-0.8,2.399-2.399l0.8-19.197
		c0.08-1.6-1.16-2.399-2.399-2.399h-0.8v-1.6h11.958l4.839,12.438h0.08l3.959-12.438h13.158v1.6h-0.8c-1.4,0-2.479,0.88-2.4,2.399
		l0.8,19.197c0.08,1.8,1.16,2.399,2.399,2.399h0.8v1.6H104.596z"/>
	<path fill="#FFFFFF" d="M123,77.848v-1.6h0.8c1.24,0,2.4-0.84,2.4-2.399V54.651c0-1.52-1.16-2.399-2.4-2.399H123v-1.6h22.796
		l1.999,8.599h-1.76c-2.398-4.52-4.679-6.599-8.158-6.599h-2.279V63.09h3.319c1.64,0,2.399-1.159,2.399-2.399v-0.8h1.8v8.358h-1.8
		v-0.8c0-1.239-0.76-2.399-2.399-2.399h-3.319v8.398c0,1.36,0.64,2.399,2.279,2.399c3.479,0,6.719-2.839,9.358-7.799h1.76
		l-2.399,9.799H123z"/>
	<path fill="#FFFFFF" d="M174.596,76.848c-1.641,1-5.399,1.8-8.398,1.8c-1.24,0-2.4-0.12-3.48-0.32l-0.64,1.641
		c0.841-0.36,1.76-0.601,2.8-0.601c2.359,0,4.439,1.24,4.439,3.96c0,2.279-2.199,4.119-5.119,4.119c-2.84,0-4.119-1.08-4.119-2.479
		c0-0.84,0.439-1.72,1.68-1.72c0.84,0,1.479,0.6,1.479,1.439c0,0.76,0.319,1.6,1.239,1.6c0.641,0,1.52-0.64,1.52-1.84
		c0-1.8-0.959-2.839-2.839-2.839c-0.64,0-1.52,0.239-1.96,0.6l-1.319-0.52l1.439-3.72c-6.118-1.8-9.718-7.079-9.718-13.558
		c0-8.039,5.799-14.558,14.598-14.558c2.999,0,6.559,0.8,8.198,1.8v7.398h-1.56c-1.36-4.479-3.119-6.799-5.68-6.799
		c-3.039,0-5.919,2.199-5.919,12.158c0,9.958,3.64,11.838,5.919,11.838c2.561,0,4.52-2.319,5.879-6.799h1.561V76.848z"/>
	<path fill="#FFFFFF" d="M190.557,77.848v-1.6h0.8c1.2,0,2.159-0.64,2.159-1.68c0-0.88-0.24-1.76-0.52-2.6l-0.6-1.8h-7.6l-0.119,0.4
		c-0.721,1.959-1.12,2.839-1.12,3.879c0,1.16,0.84,1.8,2.2,1.8h0.52v1.6h-10.078v-1.6h0.6c1.24,0,3.199-0.44,4.079-2.8l6.72-17.557
		l-0.721-2.2c1.96-0.88,5.959-2.839,7.919-4.039l8.159,23.796c0.76,2.2,2.199,2.8,3.439,2.8h0.6v1.6H190.557z M188.757,59.411
		l-3.2,8.758h6.16L188.757,59.411z"/>
	<path fill="#FFFFFF" d="M239.594,77.447c0,0-2.52,0.801-6.519,0.801c-4.479,0-7.56-1.08-9.639-5.76l-2.76-6.198h-0.079v7.559
		c0,1.72,1.159,2.399,2.398,2.399h0.801v1.6h-15.798v-1.6h0.8c1.24,0,2.4-0.64,2.4-2.399V54.651c0-1.64-1.16-2.399-2.4-2.399h-0.8
		v-1.6h18.437c6.239,0,8.679,3.159,8.679,6.919c0,3.64-2.76,6.318-5.039,7.198l2.52,4.92c2.96,5.839,4.479,6.358,5.759,6.358
		c0.681,0,1.24-0.2,1.24-0.2V77.447z M220.598,52.652v10.238c0,0.72,0.399,1.199,1.439,1.199c0.879,0,2.76-1.199,2.76-5.719
		c0-5.039-1.801-5.719-3.2-5.719H220.598z"/>
</g>
</svg>
