<?xml version="1.0" encoding="utf-8"?>
<!-- Generator: Adobe Illustrator 16.0.0, SVG Export Plug-In . SVG Version: 6.00 Build 0)  -->
<!DOCTYPE svg PUBLIC "-//W3C//DTD SVG 1.1//EN" "http://www.w3.org/Graphics/SVG/1.1/DTD/svg11.dtd">
<svg version="1.1" id="Layer_1" xmlns="http://www.w3.org/2000/svg" xmlns:xlink="http://www.w3.org/1999/xlink" x="0px" y="0px"
	 width="700px" height="500px" viewBox="0 0 700 500" enable-background="new 0 0 700 500" xml:space="preserve">
<path fill="#FFFFFF" d="M674.642,447.12c0,18.348-14.872,33.233-33.24,33.233H57.868c-18.36,0-33.227-14.886-33.227-33.233V201.063
	c0-18.347,14.866-33.253,33.227-33.253l583.533-73.416c18.368,0,33.24,14.894,33.24,33.248V447.12z"/>
<g>
	<path d="M250.47,248.898c0,6.757,5.476,12.234,12.228,12.234h226.702c6.758,0,12.234-5.478,12.234-12.234V62.98
		c0-6.748-5.477-12.23-12.234-12.23L262.697,20.542c-6.752,0-12.228,5.476-12.228,12.232V248.898z"/>
	<path fill="#FFFFFF" d="M485.084,234.204c0,6.71-5.438,12.15-12.145,12.15H247.785c-6.71,0-12.151-5.44-12.151-12.15V104.626
		c0-6.7,5.441-12.145,12.151-12.145l225.154-30.004c6.707,0,12.145,5.44,12.145,12.152V234.204z"/>
	<path d="M250.038,244.516h220.647c6.573,0,11.905-5.329,11.905-11.911V76.222c0,0-3.766,149.863-4.105,155.988
		c-0.341,6.121-4.763,7.822-7.824,8.502C467.597,241.396,250.038,244.516,250.038,244.516z"/>
	<path d="M451.65,225.302c0,5.783-4.688,10.475-10.477,10.475H257.256c-5.786,0-10.472-4.691-10.472-10.475v-111.77
		c0-5.782,4.686-10.48,10.472-10.48l183.918-23.14c5.789,0,10.477,4.694,10.477,10.479V225.302z"/>
	<g>
		<g>
			<path fill="#FFFFFF" d="M294.957,135.451v3.656c0,4.497-2.168,6.948-6.587,6.948h-2.088v10.56h-4.417v-28.111h6.505
				C292.789,128.504,294.957,130.953,294.957,135.451z M286.282,132.521v9.513h2.088c1.406,0,2.169-0.637,2.169-2.647v-4.215
				c0-2.008-0.763-2.65-2.169-2.65H286.282z"/>
			<path fill="#FFFFFF" d="M305.438,156.615c-0.24-0.724-0.4-1.164-0.4-3.458v-4.415c0-2.61-0.883-3.571-2.895-3.571h-1.523v11.444
				h-4.416v-28.111h6.665c4.579,0,6.546,2.127,6.546,6.465v2.207c0,2.896-0.923,4.741-2.89,5.666v0.079
				c2.207,0.925,2.929,3.012,2.929,5.946v4.334c0,1.363,0.043,2.37,0.482,3.414H305.438z M300.619,132.521v8.632h1.726
				c1.648,0,2.652-0.724,2.652-2.969v-2.774c0-2.008-0.686-2.889-2.251-2.889H300.619z"/>
			<path fill="#FFFFFF" d="M315.959,140.352h6.064v4.017h-6.064v8.231h7.631v4.016h-12.05v-28.111h12.05v4.018h-7.631V140.352z
				 M311.943,127.02l3.574-4.459h3.976l3.573,4.459h-3.773l-1.808-2.213l-1.767,2.213H311.943z"/>
			<path fill="#FFFFFF" d="M334.833,148.462h0.081l2.973-19.958h6.144v28.111h-4.178V136.46h-0.078l-2.975,20.155h-4.173
				l-3.215-19.878h-0.081v19.878h-3.857v-28.111h6.147L334.833,148.462z"/>
			<path fill="#FFFFFF" d="M346.438,128.504h4.416v28.111h-4.416V128.504z"/>
			<path fill="#FFFFFF" d="M352.901,135.251c0-4.499,2.37-7.068,6.708-7.068c4.339,0,6.707,2.569,6.707,7.068v14.619
				c0,4.493-2.368,7.066-6.707,7.066c-4.338,0-6.708-2.573-6.708-7.066V135.251z M357.32,150.147c0,2.009,0.887,2.772,2.289,2.772
				c1.407,0,2.287-0.764,2.287-2.772v-15.179c0-2.009-0.88-2.768-2.287-2.768c-1.402,0-2.289,0.759-2.289,2.768V150.147z"/>
		</g>
		<g>
			<polygon fill="#EB212E" points="370.419,194.967 386.42,192.613 386.42,156.507 366.323,156.507 370.419,194.967 			"/>
			<path fill="#FFFFFF" d="M265.354,178.542c0-0.906-0.046-1.995-0.354-2.854c-0.355-0.905-0.933-1.541-2.086-1.541
				c-2.393,0-2.66,2.99-2.66,7.516c0,5.119,0.801,6.793,2.66,6.793c2.529,0,2.753-2.624,2.753-4.346l5.588,0.814
				c-0.533,5.523-3.637,8.42-8.873,8.42c-6.476,0-9.847-5.796-9.847-11.411c0-6.201,3.371-12.4,10.158-12.4
				c7.632,0,8.782,6.748,8.782,9.01H265.354L265.354,178.542z"/>
			<path fill="#FFFFFF" d="M281.379,168.835c6.701,0,10.032,5.025,10.032,11.812c0,7.066-3.199,12.001-10.032,12.001
				c-6.826,0-10.023-4.935-10.023-12.001C271.355,173.86,274.683,168.835,281.379,168.835L281.379,168.835z M281.379,188.031
				c1.78,0,2.577-1.632,2.577-7.384c0-5.248-0.532-7.195-2.577-7.195c-2.038,0-2.569,1.947-2.569,7.195
				C278.81,186.399,279.608,188.031,281.379,188.031L281.379,188.031z"/>
			<path fill="#FFFFFF" d="M291.941,169.416h7.188v3.034h0.089c1.506-2.312,3.771-3.577,6.342-3.577
				c2.883,0,4.745,1.989,4.745,5.116v18.152h-7.182v-16.073c0-1.221-0.402-2.034-1.733-2.034c-0.756,0-1.375,0.315-1.86,0.945
				l-0.4,0.551v16.611h-7.188V169.416L291.941,169.416z"/>
			<path fill="#FFFFFF" d="M313.632,174.602h-2.926v-5.16h2.926v-8.147h7.187v8.147h3.952v5.16h-3.952v9.643
				c0,1.587,0,2.76,2.308,2.76c0.574,0,1.151-0.09,1.645-0.223v5.339c-1.422,0.406-3.507,0.588-5.061,0.588
				c-3.817,0-6.078-1.675-6.078-5.746V174.602L313.632,174.602z"/>
			<path fill="#FFFFFF" d="M325.906,169.416h7.188v22.726h-7.188V169.416L325.906,169.416z M325.906,161.31h7.188v6.515h-7.188
				V161.31L325.906,161.31z"/>
			<path fill="#FFFFFF" d="M362.67,168.881c6.698,0,10.026,5.02,10.026,11.817c0,7.06-3.194,11.994-10.026,11.994
				s-10.028-4.935-10.028-11.994C352.642,173.9,355.973,168.881,362.67,168.881L362.67,168.881z M362.67,188.074
				c1.774,0,2.571-1.631,2.571-7.376c0-5.255-0.531-7.199-2.571-7.199c-2.038,0-2.575,1.944-2.575,7.199
				C360.095,186.443,360.896,188.074,362.67,188.074L362.67,188.074z"/>
			<path fill="#FFFFFF" d="M373.432,161.253h8.254l-1.376,21.006h-4.788L373.432,161.253L373.432,161.253z M373.923,184.315h7.722
				v7.881h-7.722V184.315L373.923,184.315z"/>
			<path fill="#FFFFFF" d="M355.33,173.316c-0.667-0.637-1.509-1.176-2.531-1.176c-0.531,0-1.018,0.224-1.196,0.496
				c0.845,0.997,1.065,2.402,1.065,3.708c0,4.488-4.835,6.706-8.783,6.706c-1.376,0-2.265-0.184-3.062-0.365
				c-0.179,0.227-0.756,0.859-0.756,1.315c0,1.63,1.952,1.63,4.482,1.63c4.261,0,9.979,0.541,9.979,6.249
				c0,4.657-4.479,7.059-11.043,7.059c-2.531,0-10.339-0.36-10.339-4.708c0-2.441,2.173-3.62,4.216-3.982v-0.09
				c-1.774-0.59-3.15-1.629-3.15-3.715c0-2.218,2.483-3.891,4.345-4.343v-0.094c-2.795-1.219-4.169-3.396-4.169-5.977
				c0-5.157,5.461-7.149,9.098-7.149c2.129,0,4.48,0.498,6.163,1.627c0.534-1.265,3.552-2.985,5.681-2.985V173.316L355.33,173.316z
				 M338.735,193.146c0,1.856,3.331,1.992,4.751,1.992c1.685,0,4.923,0,4.923-1.992c0-2.085-3.595-2.085-4.923-2.085
				C342.465,191.061,338.735,191.061,338.735,193.146L338.735,193.146z M341.044,176.168c0,1.631,0.576,3.625,2.442,3.625
				c1.994,0,2.525-2.085,2.525-3.941c0-1.764-0.665-3.711-2.525-3.711C341.488,172.141,341.044,174.447,341.044,176.168
				L341.044,176.168z"/>
		</g>
		<g>
			<path fill="#FFFFFF" d="M252.23,132.104c3.396,0,4.152-1.637,4.838-3.513h2.952v27.967h-4.394V135.22h-3.396V132.104z"/>
			<path fill="#FFFFFF" d="M275.046,128.592v3.834l-6.476,24.133h-4.394l6.434-23.975h-8.75v-3.992H275.046z"/>
			<path fill="#FFFFFF" d="M276.129,134.303c0-1.157,0.613-1.837,1.758-1.837c1.143,0,1.757,0.68,1.757,1.837v2.57
				c0,1.166-0.614,1.842-1.757,1.842c-1.145,0-1.758-0.676-1.758-1.842V134.303z M279.644,139.396v1.146h-3.515v-1.146H279.644z
				 M277.288,136.941c0,0.531,0.216,0.716,0.599,0.716c0.363,0,0.596-0.185,0.596-0.716v-2.699c0-0.532-0.232-0.715-0.596-0.715
				c-0.383,0-0.599,0.183-0.599,0.715V136.941z"/>
		</g>
		<g>
			<path fill="#FFFFFF" d="M388.486,156.46h27.611v8.123h-9.337v48.727h-8.932v-48.727h-9.343V156.46z"/>
			<path fill="#FFFFFF" d="M433.392,202.831h0.163l6.739-46.371h8.202l-8.768,56.85h-13.32l-8.771-56.85h9.017L433.392,202.831z"/>
		</g>
		<g>
			<path fill="#FFFFFF" d="M370.455,196.777h4.119c2.606,0,3.885,1.446,3.885,4.101v8.38c0,2.651-1.278,4.096-3.885,4.096h-4.119
				V196.777z M373.059,199.145v11.838h1.472c0.826,0,1.325-0.426,1.325-1.609v-8.616c0-1.185-0.499-1.612-1.325-1.612H373.059z"/>
			<path fill="#FFFFFF" d="M381.881,203.763h3.577v2.37h-3.577v4.85h4.498v2.371h-7.102v-16.576h7.102v2.367h-4.498V203.763z"/>
		</g>
	</g>
	<path d="M478.227,135.949c0,5.912-4.796,10.711-10.714,10.711c-5.917,0-10.714-4.799-10.714-10.711
		c0-5.923,4.797-10.718,10.714-10.718C473.431,125.231,478.227,130.026,478.227,135.949z"/>
	<rect x="456.371" y="156.09" width="22.287" height="4.287"/>
	<rect x="456.371" y="165.522" width="22.287" height="4.283"/>
	<rect x="456.371" y="174.95" width="22.287" height="4.283"/>
	<rect x="456.371" y="184.38" width="22.287" height="4.282"/>
	<path fill="#FFFFFF" d="M315.47,90.76c-0.073-0.843-0.111-1.698-0.111-2.564c0-16.097,13.046-29.146,29.145-29.146
		c14.085,0,25.839,9.993,28.551,23.274L315.47,90.76z"/>
	<polygon fill="#FFFFFF" points="345.291,71.808 342.266,74.838 307.708,40.29 310.743,37.258 	"/>
	
		<rect x="361.646" y="31.619" transform="matrix(-0.7072 -0.707 0.707 -0.7072 581.4421 352.884)" fill="#FFFFFF" width="4.286" height="48.86"/>
</g>
</svg>
