<?xml version="1.0" encoding="utf-8"?>
<!-- Generator: Adobe Illustrator 16.0.0, SVG Export Plug-In . SVG Version: 6.00 Build 0)  -->
<!DOCTYPE svg PUBLIC "-//W3C//DTD SVG 1.1//EN" "http://www.w3.org/Graphics/SVG/1.1/DTD/svg11.dtd">
<svg version="1.1" id="Layer_1" xmlns="http://www.w3.org/2000/svg" xmlns:xlink="http://www.w3.org/1999/xlink" x="0px" y="0px"
	 width="510px" height="280px" viewBox="0 0 510 280" enable-background="new 0 0 510 280" xml:space="preserve">
<g>
	<path fill="#CF242E" d="M500.545,171.548c0,7.58-6.145,13.726-13.721,13.726H302.49c-7.582,0-13.727-6.146-13.727-13.726v-46.36
		c0-7.567,6.145-13.717,13.727-13.717l184.334-33.892c7.576,0,13.721,6.145,13.721,13.726V171.548z"/>
	<g>
		<path d="M33.875,261.948c0,7.632,6.186,13.82,13.813,13.82h256.078c7.633,0,13.82-6.188,13.82-13.82V51.938
			c0-7.623-6.188-13.815-13.82-13.815L47.688,4c-7.627,0-13.813,6.186-13.813,13.818V261.948z"/>
		<path fill="#FFFFFF" d="M298.893,245.35c0,7.58-6.145,13.726-13.721,13.726H30.842c-7.581,0-13.725-6.146-13.725-13.726V98.979
			c0-7.567,6.145-13.717,13.725-13.717l254.33-33.892c7.576,0,13.721,6.145,13.721,13.726V245.35z"/>
		<path fill="#231F20" d="M33.388,256.996h249.239c7.424,0,13.449-6.019,13.449-13.452V66.896c0,0-4.254,169.282-4.639,176.199
			c-0.385,6.916-5.381,8.837-8.84,9.605C279.137,253.475,33.388,256.996,33.388,256.996z"/>
		<path d="M261.126,235.294c0,6.532-5.296,11.833-11.835,11.833H41.541c-6.536,0-11.829-5.301-11.829-11.833V109.041
			c0-6.531,5.292-11.839,11.829-11.839l207.75-26.137c6.539,0,11.835,5.301,11.835,11.836V235.294z"/>
		<g>
			<g>
				<path fill="#FFFFFF" d="M84.127,133.801v4.13c0,5.079-2.449,7.849-7.44,7.849h-2.358v11.927h-4.989v-31.754h7.347
					C81.678,125.952,84.127,128.72,84.127,133.801z M74.329,130.49v10.746h2.358c1.589,0,2.451-0.72,2.451-2.99v-4.762
					c0-2.268-0.862-2.994-2.451-2.994H74.329z"/>
				<path fill="#FFFFFF" d="M95.965,157.706c-0.271-0.817-0.452-1.314-0.452-3.904v-4.987c0-2.949-0.997-4.035-3.269-4.035h-1.72
					v12.927h-4.99v-31.754h7.528c5.174,0,7.395,2.402,7.395,7.304v2.492c0,3.271-1.041,5.355-3.265,6.399v0.091
					c2.493,1.043,3.309,3.401,3.309,6.716v4.896c0,1.541,0.049,2.678,0.546,3.856H95.965z M90.524,130.49v9.751h1.948
					c1.862,0,2.996-0.816,2.996-3.354v-3.133c0-2.269-0.774-3.264-2.542-3.264H90.524z"/>
				<path fill="#FFFFFF" d="M107.851,139.336h6.85v4.536h-6.85v9.299h8.618v4.535h-13.61v-31.754h13.61v4.538h-8.618V139.336z
					 M103.315,124.275l4.037-5.036h4.491l4.037,5.036h-4.263l-2.042-2.498l-1.995,2.498H103.315z"/>
				<path fill="#FFFFFF" d="M129.171,148.496h0.09l3.358-22.544h6.94v31.754h-4.719v-22.767h-0.088l-3.359,22.767h-4.715
					l-3.63-22.452h-0.091v22.452h-4.357v-31.754h6.943L129.171,148.496z"/>
				<path fill="#FFFFFF" d="M142.278,125.952h4.989v31.754h-4.989V125.952z"/>
				<path fill="#FFFFFF" d="M149.581,133.574c0-5.082,2.678-7.984,7.578-7.984c4.898,0,7.576,2.902,7.576,7.984v16.513
					c0,5.076-2.677,7.982-7.576,7.982c-4.899,0-7.578-2.906-7.578-7.982V133.574z M154.573,150.401c0,2.268,0.999,3.13,2.585,3.13
					c1.588,0,2.582-0.862,2.582-3.13v-17.146c0-2.27-0.994-3.127-2.582-3.127c-1.586,0-2.585,0.857-2.585,3.127V150.401z"/>
			</g>
			<g>
				<polygon fill="#EA212E" points="169.367,201.028 187.443,198.369 187.443,157.584 164.741,157.584 169.367,201.028 				"/>
				<path fill="#FFFFFF" d="M50.688,182.474c0-1.023-0.051-2.252-0.4-3.224c-0.401-1.022-1.053-1.739-2.356-1.739
					c-2.704,0-3.004,3.376-3.004,8.488c0,5.783,0.903,7.674,3.004,7.674c2.856,0,3.109-2.964,3.109-4.91l6.313,0.921
					c-0.601,6.239-4.108,9.512-10.023,9.512c-7.314,0-11.123-6.547-11.123-12.89c0-7.005,3.808-14.008,11.475-14.008
					c8.621,0,9.921,7.622,9.921,10.176H50.688L50.688,182.474z"/>
				<path fill="#FFFFFF" d="M68.79,171.51c7.569,0,11.331,5.677,11.331,13.344c0,7.982-3.612,13.556-11.331,13.556
					c-7.711,0-11.323-5.573-11.323-13.556C57.467,177.187,61.226,171.51,68.79,171.51L68.79,171.51z M68.79,193.193
					c2.01,0,2.911-1.843,2.911-8.34c0-5.929-0.602-8.13-2.911-8.13c-2.302,0-2.902,2.201-2.902,8.13
					C65.888,191.351,66.79,193.193,68.79,193.193L68.79,193.193z"/>
				<path fill="#FFFFFF" d="M80.721,172.166h8.121v3.428h0.099c1.702-2.611,4.259-4.041,7.165-4.041
					c3.256,0,5.362,2.247,5.362,5.779v20.504h-8.115v-18.155c0-1.379-0.452-2.298-1.958-2.298c-0.854,0-1.553,0.356-2.102,1.069
					l-0.451,0.619v18.765h-8.121V172.166L80.721,172.166z"/>
				<path fill="#FFFFFF" d="M105.223,178.023h-3.306v-5.829h3.306v-9.204h8.117v9.204h4.465v5.829h-4.465v10.892
					c0,1.794,0,3.118,2.606,3.118c0.65,0,1.302-0.102,1.859-0.251v6.031c-1.606,0.458-3.962,0.663-5.715,0.663
					c-4.313,0-6.866-1.893-6.866-6.492V178.023L105.223,178.023z"/>
				<path fill="#FFFFFF" d="M119.087,172.166h8.119v25.67h-8.119V172.166L119.087,172.166z M119.087,163.009h8.119v7.359h-8.119
					V163.009L119.087,163.009z"/>
				<path fill="#FFFFFF" d="M160.615,171.561c7.566,0,11.325,5.672,11.325,13.35c0,7.975-3.608,13.549-11.325,13.549
					c-7.719,0-11.328-5.574-11.328-13.549C149.287,177.232,153.049,171.561,160.615,171.561L160.615,171.561z M160.615,193.241
					c2.004,0,2.904-1.842,2.904-8.331c0-5.935-0.6-8.132-2.904-8.132c-2.303,0-2.91,2.197-2.91,8.132
					C157.705,191.399,158.61,193.241,160.615,193.241L160.615,193.241z"/>
				<path fill="#FFFFFF" d="M172.771,162.945h9.323l-1.556,23.729h-5.407L172.771,162.945L172.771,162.945z M173.325,188.996h8.722
					v8.901h-8.722V188.996L173.325,188.996z"/>
				<path fill="#FFFFFF" d="M152.322,176.573c-0.751-0.721-1.704-1.33-2.856-1.33c-0.602,0-1.15,0.253-1.352,0.562
					c0.952,1.126,1.203,2.713,1.203,4.188c0,5.069-5.462,7.574-9.923,7.574c-1.553,0-2.557-0.207-3.458-0.412
					c-0.201,0.256-0.853,0.972-0.853,1.485c0,1.842,2.205,1.842,5.062,1.842c4.813,0,11.272,0.61,11.272,7.059
					c0,5.262-5.057,7.973-12.473,7.973c-2.857,0-11.678-0.406-11.678-5.319c0-2.757,2.454-4.088,4.762-4.496v-0.102
					c-2.004-0.667-3.56-1.841-3.56-4.197c0-2.504,2.807-4.395,4.91-4.905v-0.105c-3.156-1.377-4.709-3.835-4.709-6.75
					c0-5.826,6.167-8.078,10.275-8.078c2.405,0,5.061,0.563,6.961,1.84c0.603-1.43,4.013-3.374,6.416-3.374V176.573L152.322,176.573
					z M133.579,198.971c0,2.096,3.761,2.25,5.366,2.25c1.902,0,5.561,0,5.561-2.25c0-2.355-4.06-2.355-5.561-2.355
					C137.791,196.615,133.579,196.615,133.579,198.971L133.579,198.971z M136.185,179.794c0,1.842,0.652,4.093,2.76,4.093
					c2.252,0,2.853-2.354,2.853-4.451c0-1.992-0.751-4.192-2.853-4.192C136.688,175.243,136.185,177.85,136.185,179.794
					L136.185,179.794z"/>
			</g>
			<g>
				<path fill="#FFFFFF" d="M35.864,130.02c3.836,0,4.69-1.849,5.463-3.968h3.336v31.59h-4.963v-24.103h-3.836V130.02z"/>
				<path fill="#FFFFFF" d="M61.636,126.052v4.331l-7.314,27.259h-4.962l7.267-27.079h-9.884v-4.511H61.636z"/>
				<path fill="#FFFFFF" d="M62.859,132.504c0-1.309,0.693-2.077,1.986-2.077c1.292,0,1.985,0.769,1.985,2.077v2.902
					c0,1.317-0.693,2.081-1.985,2.081c-1.292,0-1.986-0.764-1.986-2.081V132.504z M66.83,138.256v1.293h-3.971v-1.293H66.83z
					 M64.169,135.483c0,0.601,0.244,0.808,0.675,0.808c0.412,0,0.672-0.207,0.672-0.808v-3.05c0-0.602-0.26-0.807-0.672-0.807
					c-0.431,0-0.675,0.205-0.675,0.807V135.483z"/>
			</g>
			<g>
				<path fill="#FFFFFF" d="M189.777,157.531h31.188v9.177h-10.547v55.04H200.33v-55.04h-10.553V157.531z"/>
				<path fill="#FFFFFF" d="M240.501,209.911h0.184l7.612-52.38h9.266l-9.905,64.217h-15.044l-9.91-64.217h10.186L240.501,209.911z"
					/>
			</g>
			<g>
				<path fill="#FFFFFF" d="M169.408,203.073h4.652c2.946,0,4.39,1.633,4.39,4.631v9.467c0,2.995-1.444,4.626-4.39,4.626h-4.652
					V203.073z M172.35,205.748v13.37h1.66c0.935,0,1.498-0.479,1.498-1.817v-9.732c0-1.338-0.563-1.82-1.498-1.82H172.35z"/>
				<path fill="#FFFFFF" d="M182.315,210.964h4.039v2.677h-4.039v5.478h5.081v2.679h-8.022v-18.724h8.022v2.675h-5.081V210.964z"/>
			</g>
		</g>
		<path d="M291.145,134.362c0,6.679-5.416,12.1-12.102,12.1c-6.684,0-12.103-5.421-12.103-12.1c0-6.69,5.419-12.106,12.103-12.106
			C285.729,122.256,291.145,127.672,291.145,134.362z"/>
		<rect x="266.456" y="157.112" width="25.177" height="4.845"/>
		<rect x="266.456" y="167.769" width="25.177" height="4.837"/>
		<rect x="266.456" y="178.418" width="25.177" height="4.838"/>
		<rect x="266.456" y="189.069" width="25.177" height="4.837"/>
		<path fill="#FFFFFF" d="M107.297,83.317c-0.083-0.953-0.126-1.919-0.126-2.896c0-18.183,14.736-32.922,32.922-32.922
			c15.91,0,29.186,11.288,32.251,26.29L107.297,83.317z"/>
		<polygon fill="#FFFFFF" points="140.984,61.91 137.566,65.332 98.532,26.308 101.958,22.884 		"/>
		
			<rect x="159.458" y="16.514" transform="matrix(-0.7074 -0.7068 0.7068 -0.7074 245.2162 189.7287)" fill="#FFFFFF" width="4.841" height="55.191"/>
	</g>
	<g>
		<path fill="#FFFFFF" d="M358.058,110.801l4.218,22.535l4.182-22.535h2.664l-4.847,25.902h-4.256l-4.884-25.902H358.058z"/>
		<path fill="#FFFFFF" d="M371.822,117.055c0-3.959,1.961-6.512,5.92-6.512c3.996,0,5.957,2.553,5.957,6.512v13.395
			c0,3.922-1.961,6.512-5.957,6.512c-3.959,0-5.92-2.59-5.92-6.512V117.055z M374.671,130.598c0,2.368,0.999,3.737,3.071,3.737
			c2.109,0,3.071-1.369,3.071-3.737v-13.691c0-2.331-0.962-3.737-3.071-3.737c-2.072,0-3.071,1.406-3.071,3.737V130.598z"/>
		<path fill="#FFFFFF" d="M390.913,136.703v-23.274h-4.773v-2.627h12.396v2.627h-4.773v23.274H390.913z"/>
		<path fill="#FFFFFF" d="M410.449,122.272v2.59h-6.327v9.214h7.771v2.627h-10.657v-25.902h10.657v2.627h-7.771v8.843H410.449z"/>
		<path fill="#FFFFFF" d="M424.693,131.486l-0.999,5.217h-2.664l4.958-25.902h4.182l4.958,25.902h-2.886l-0.999-5.217H424.693z
			 M425.063,129.007h5.772l-2.923-14.949L425.063,129.007z"/>
		<path fill="#FFFFFF" d="M440.455,136.703v-23.274h-4.773v-2.627h12.396v2.627h-4.773v23.274H440.455z"/>
		<path fill="#FFFFFF" d="M459.991,122.272v2.59h-6.327v9.214h7.771v2.627h-10.657v-25.902h10.657v2.627h-7.771v8.843H459.991z
			 M459.77,105.547l-3.441,3.812h-1.998l2.59-3.812H459.77z"/>
		<path fill="#FFFFFF" d="M346.549,147.947c-1.54,0-2.508,0.836-2.508,3.036v3.301h-4.577v-2.992c0-4.929,2.465-7.745,7.218-7.745
			c4.752,0,7.217,2.816,7.217,7.745c0,9.681-9.638,13.289-9.638,18.351c0,0.22,0,0.439,0.044,0.66h9.153v4.4h-13.994v-3.785
			c0-9.064,9.594-10.562,9.594-19.45C349.058,148.695,348.09,147.947,346.549,147.947z"/>
		<path fill="#FFFFFF" d="M369.782,143.898v4.225l-7.129,26.58h-4.841l7.085-26.404h-9.638v-4.4H369.782z"/>
		<path fill="#FFFFFF" d="M384.96,148.801c4.033,0,5.884,2.442,5.884,6.438v13.062c0,3.959-1.851,6.401-5.884,6.401h-6.068v-25.902
			H384.96z M384.923,172.076c2.072,0,3.071-1.296,3.071-3.664v-13.32c0-2.368-0.999-3.663-3.108-3.663h-3.108v20.647H384.923z"/>
		<path fill="#FFFFFF" d="M403.497,160.271v2.591h-6.327v9.214h7.771v2.627h-10.657v-25.902h10.657v2.628h-7.771v8.843H403.497z"/>
		<path fill="#FFFFFF" d="M417.741,169.485l-0.999,5.218h-2.664l4.958-25.902h4.182l4.958,25.902h-2.887l-0.999-5.218H417.741z
			 M418.111,167.007h5.772l-2.924-14.949L418.111,167.007z"/>
		<path fill="#FFFFFF" d="M436.981,148.801c4.033,0,5.624,1.925,5.624,5.735v1.222c0,2.738-0.777,4.44-3.034,5.144
			c2.517,0.702,3.479,2.701,3.479,5.55v2.184c0,3.885-1.888,6.068-5.921,6.068h-5.957v-25.902H436.981z M436.278,159.791
			c2.294,0,3.479-0.74,3.479-3.441v-1.518c0-2.294-0.777-3.403-2.85-3.403h-2.85v8.362H436.278z M437.129,172.076
			c2.109,0,3.071-1.11,3.071-3.516v-2.294c0-2.887-1.146-3.849-3.626-3.849h-2.517v9.658H437.129z"/>
		<path fill="#FFFFFF" d="M452.188,148.801c4.07,0,5.772,2.072,5.772,5.921v2.109c0,2.849-0.999,4.625-3.219,5.328
			c2.368,0.703,3.256,2.627,3.256,5.402v4.033c0,1.147,0.037,2.22,0.519,3.108h-2.924c-0.333-0.74-0.48-1.406-0.48-3.146v-4.07
			c0-2.923-1.369-3.849-3.774-3.849h-2.035v11.064h-2.887v-25.902H452.188z M451.448,161.012c2.294,0,3.663-0.74,3.663-3.552v-2.479
			c0-2.331-0.852-3.552-2.997-3.552h-2.812v9.583H451.448z"/>
		<path fill="#FFFFFF" d="M464.619,148.801v25.902h-2.886v-25.902H464.619z"/>
		<path fill="#FFFFFF" d="M468.319,174.703v-25.902h2.886v23.275h7.4v2.627H468.319z"/>
	</g>
</g>
</svg>
