<?xml version="1.0" encoding="utf-8"?>
<!-- Generator: Adobe Illustrator 16.0.0, SVG Export Plug-In . SVG Version: 6.00 Build 0)  -->
<!DOCTYPE svg PUBLIC "-//W3C//DTD SVG 1.1//EN" "http://www.w3.org/Graphics/SVG/1.1/DTD/svg11.dtd">
<svg version="1.1" id="Layer_1" xmlns="http://www.w3.org/2000/svg" xmlns:xlink="http://www.w3.org/1999/xlink" x="0px" y="0px"
	 width="310px" height="300px" viewBox="0 0 310 300" enable-background="new 0 0 310 300" xml:space="preserve">
<g>
	<g>
		<path fill="#010101" d="M21.749,272.418c0,7.627,6.18,13.811,13.803,13.811h255.913c7.629,0,13.811-6.184,13.811-13.811V62.544
			c0-7.618-6.184-13.806-13.811-13.806l-255.914-34.1c-7.622,0-13.804,6.182-13.804,13.808v243.972H21.749z"/>
		<path fill="#FFFFFF" d="M286.592,255.83c0,7.575-6.137,13.716-13.709,13.716H18.718C11.143,269.546,5,263.405,5,255.83V109.557
			c0-7.563,6.143-13.71,13.718-13.71l254.165-33.87c7.572,0,13.709,6.141,13.709,13.718V255.83z"/>
		<path fill="#010101" d="M21.261,267.471h249.077c7.42,0,13.439-6.016,13.439-13.445V77.493c0,0-4.252,169.173-4.635,176.087
			c-0.385,6.909-5.377,8.83-8.832,9.597C266.852,263.949,21.261,267.471,21.261,267.471z"/>
		<path fill="#010101" d="M248.852,245.781c0,6.528-5.293,11.824-11.828,11.824H29.408c-6.53,0-11.821-5.295-11.821-11.824V119.61
			c0-6.527,5.291-11.831,11.821-11.831l207.615-26.121c6.535,0,11.828,5.299,11.828,11.829V245.781L248.852,245.781z"/>
		<g>
			<g>
				<path fill="#FFFFFF" d="M71.967,144.354v4.127c0,5.076-2.447,7.844-7.436,7.844h-2.356v11.92h-4.986v-31.733h7.343
					C69.52,136.511,71.967,139.276,71.967,144.354z M62.175,141.046v10.739h2.356c1.587,0,2.448-0.72,2.448-2.988v-4.759
					c0-2.267-0.861-2.991-2.448-2.991L62.175,141.046L62.175,141.046z"/>
				<path fill="#FFFFFF" d="M83.798,168.244c-0.27-0.817-0.451-1.313-0.451-3.903v-4.983c0-2.947-0.997-4.031-3.268-4.031H78.36
					v12.918h-4.985v-31.733h7.523c5.169,0,7.39,2.401,7.39,7.299v2.491c0,3.27-1.042,5.352-3.262,6.396v0.089
					c2.491,1.045,3.306,3.4,3.306,6.713v4.893c0,1.538,0.048,2.675,0.544,3.854H83.798L83.798,168.244z M78.358,141.046v9.744h1.949
					c1.859,0,2.993-0.817,2.993-3.351v-3.131c0-2.267-0.774-3.261-2.541-3.261H78.358z"/>
				<path fill="#FFFFFF" d="M95.675,149.886h6.846v4.534h-6.846v9.292h8.614v4.534H90.687v-31.734h13.603v4.536h-8.614V149.886z
					 M91.142,134.836l4.035-5.034h4.488l4.033,5.034h-4.26l-2.041-2.498l-1.994,2.498H91.142z"/>
				<path fill="#FFFFFF" d="M116.981,159.041h0.091l3.356-22.53h6.936v31.733h-4.716v-22.752h-0.089l-3.358,22.752h-4.71
					l-3.629-22.439h-0.092v22.439h-4.354v-31.733h6.938L116.981,159.041z"/>
				<path fill="#FFFFFF" d="M130.081,136.511h4.984v31.733h-4.984V136.511z"/>
				<path fill="#FFFFFF" d="M137.376,144.127c0-5.079,2.678-7.979,7.574-7.979c4.897,0,7.57,2.9,7.57,7.979v16.503
					c0,5.07-2.673,7.976-7.57,7.976c-4.896,0-7.574-2.905-7.574-7.976V144.127z M142.366,160.943c0,2.268,1,3.129,2.584,3.129
					c1.587,0,2.582-0.863,2.582-3.129v-17.136c0-2.268-0.995-3.124-2.582-3.124c-1.584,0-2.584,0.856-2.584,3.124V160.943z"/>
			</g>
			<g>
				<polygon fill="#EB2630" points="157.152,211.537 175.215,208.881 175.215,168.122 152.528,168.122 				"/>
				<path fill="#FFFFFF" d="M38.55,192.996c0-1.022-0.051-2.252-0.4-3.221c-0.4-1.021-1.053-1.74-2.354-1.74
					c-2.701,0-3.004,3.375-3.004,8.484c0,5.779,0.904,7.668,3.004,7.668c2.854,0,3.107-2.962,3.107-4.906l6.308,0.92
					c-0.601,6.234-4.105,9.504-10.017,9.504c-7.31,0-11.115-6.543-11.115-12.881c0-7,3.806-13.997,11.467-13.997
					c8.615,0,9.913,7.617,9.913,10.171H38.55V192.996z"/>
				<path fill="#FFFFFF" d="M56.64,182.039c7.564,0,11.324,5.672,11.324,13.334c0,7.977-3.611,13.547-11.324,13.547
					c-7.706,0-11.315-5.57-11.315-13.547C45.324,187.711,49.081,182.039,56.64,182.039L56.64,182.039z M56.64,203.709
					c2.01,0,2.909-1.844,2.909-8.336c0-5.925-0.601-8.122-2.909-8.122c-2.301,0-2.899,2.197-2.899,8.122
					C53.74,201.865,54.64,203.709,56.64,203.709L56.64,203.709z"/>
				<path fill="#FFFFFF" d="M68.563,182.694h8.113v3.425h0.1c1.701-2.609,4.257-4.037,7.16-4.037c3.254,0,5.355,2.244,5.355,5.775
					v20.49h-8.107v-18.145c0-1.377-0.453-2.295-1.955-2.295c-0.854,0-1.553,0.355-2.102,1.066l-0.45,0.621v18.752h-8.114V182.694
					L68.563,182.694z"/>
				<path fill="#FFFFFF" d="M93.048,188.549h-3.303v-5.825h3.303v-9.196h8.113v9.196h4.462v5.825h-4.462v10.886
					c0,1.791,0,3.115,2.605,3.115c0.648,0,1.299-0.102,1.856-0.251v6.026c-1.604,0.458-3.958,0.663-5.712,0.663
					c-4.309,0-6.861-1.891-6.861-6.486v-13.953H93.048z"/>
				<path fill="#FFFFFF" d="M106.904,182.694h8.113v25.655h-8.113V182.694L106.904,182.694z M106.904,173.544h8.113v7.354h-8.113
					V173.544L106.904,173.544z"/>
				<path fill="#FFFFFF" d="M148.405,182.09c7.561,0,11.316,5.668,11.316,13.341c0,7.97-3.604,13.539-11.316,13.539
					c-7.713,0-11.32-5.571-11.32-13.539C137.085,187.756,140.845,182.09,148.405,182.09L148.405,182.09z M148.405,203.757
					c2.002,0,2.902-1.841,2.902-8.326c0-5.933-0.6-8.127-2.902-8.127c-2.301,0-2.906,2.194-2.906,8.127
					C145.499,201.916,146.403,203.757,148.405,203.757L148.405,203.757z"/>
				<path fill="#FFFFFF" d="M160.553,173.479h9.317l-1.552,23.713h-5.406L160.553,173.479L160.553,173.479z M161.107,199.514h8.717
					v8.896h-8.717V199.514L161.107,199.514z"/>
				<path fill="#FFFFFF" d="M140.119,187.098c-0.753-0.719-1.704-1.328-2.857-1.328c-0.6,0-1.148,0.253-1.349,0.56
					c0.951,1.126,1.201,2.712,1.201,4.187c0,5.066-5.458,7.569-9.915,7.569c-1.554,0-2.557-0.207-3.457-0.411
					c-0.2,0.256-0.854,0.969-0.854,1.484c0,1.84,2.205,1.84,5.06,1.84c4.812,0,11.265,0.61,11.265,7.054
					c0,5.257-5.056,7.969-12.466,7.969c-2.856,0-11.67-0.406-11.67-5.314c0-2.756,2.451-4.087,4.758-4.495v-0.102
					c-2.002-0.666-3.555-1.84-3.555-4.193c0-2.504,2.803-4.393,4.904-4.902v-0.107c-3.155-1.375-4.705-3.833-4.705-6.747
					c0-5.821,6.164-8.069,10.27-8.069c2.403,0,5.057,0.562,6.957,1.836c0.604-1.428,4.01-3.369,6.413-3.369V187.098L140.119,187.098
					z M121.386,209.482c0,2.095,3.761,2.248,5.363,2.248c1.902,0,5.558,0,5.558-2.248c0-2.354-4.058-2.354-5.558-2.354
					C125.597,207.129,121.386,207.129,121.386,209.482L121.386,209.482z M123.992,190.316c0,1.842,0.65,4.092,2.757,4.092
					c2.252,0,2.85-2.354,2.85-4.448c0-1.991-0.75-4.188-2.85-4.188C124.493,185.771,123.992,188.374,123.992,190.316
					L123.992,190.316z"/>
			</g>
			<g>
				<path fill="#FFFFFF" d="M23.735,140.575c3.833,0,4.686-1.849,5.461-3.966h3.332v31.57h-4.96v-24.087h-3.833V140.575z"/>
				<path fill="#FFFFFF" d="M49.49,136.61v4.328l-7.31,27.243H37.22l7.263-27.065h-9.878v-4.506H49.49z"/>
				<path fill="#FFFFFF" d="M50.713,143.057c0-1.306,0.692-2.074,1.984-2.074c1.29,0,1.984,0.768,1.984,2.074v2.901
					c0,1.316-0.694,2.079-1.984,2.079c-1.292,0-1.984-0.763-1.984-2.079V143.057z M54.682,148.807v1.293h-3.969v-1.293H54.682z
					 M52.021,146.035c0,0.6,0.243,0.809,0.676,0.809c0.41,0,0.673-0.209,0.673-0.809v-3.046c0-0.601-0.262-0.808-0.673-0.808
					c-0.433,0-0.676,0.207-0.676,0.808V146.035z"/>
			</g>
			<g>
				<path fill="#FFFFFF" d="M177.548,168.069h31.169v9.169h-10.541v55.006h-10.083v-55.006h-10.547v-9.169H177.548z"/>
				<path fill="#FFFFFF" d="M228.24,220.415h0.184l7.607-52.346h9.26l-9.898,64.175h-15.037l-9.9-64.175h10.18L228.24,220.415z"/>
			</g>
			<g>
				<path fill="#FFFFFF" d="M157.192,213.581h4.65c2.941,0,4.386,1.632,4.386,4.63v9.459c0,2.993-1.442,4.624-4.386,4.624h-4.65
					V213.581z M160.132,216.254v13.363h1.662c0.933,0,1.495-0.48,1.495-1.816v-9.727c0-1.336-0.562-1.818-1.495-1.818h-1.662
					V216.254z"/>
				<path fill="#FFFFFF" d="M170.091,221.467h4.038v2.676h-4.038v5.475h5.078v2.677h-8.017v-18.712h8.017v2.672h-5.078V221.467z"/>
			</g>
		</g>
		<path fill="#010101" d="M278.852,144.916c0,6.673-5.414,12.091-12.094,12.091s-12.096-5.418-12.096-12.091
			c0-6.687,5.416-12.099,12.096-12.099S278.852,138.229,278.852,144.916z"/>
		<rect x="254.18" y="167.651" fill="#010101" width="25.158" height="4.839"/>
		<rect x="254.18" y="178.299" fill="#010101" width="25.158" height="4.835"/>
		<rect x="254.18" y="188.941" fill="#010101" width="25.158" height="4.835"/>
		<rect x="254.18" y="199.586" fill="#010101" width="25.158" height="4.834"/>
		<path fill="#FFFFFF" d="M95.124,93.903c-0.084-0.951-0.126-1.916-0.126-2.894c0-18.171,14.726-32.901,32.899-32.901
			c15.9,0,29.169,11.281,32.23,26.273L95.124,93.903z"/>
		<polygon fill="#FFFFFF" points="128.786,72.51 125.371,75.93 86.36,36.931 89.787,33.508 		"/>
		
			<rect x="147.258" y="27.141" transform="matrix(0.7071 0.7071 -0.7071 0.7071 82.5311 -89.8112)" fill="#FFFFFF" width="4.838" height="55.154"/>
	</g>
</g>
</svg>
