<?xml version="1.0" encoding="utf-8"?>
<!-- Generator: Adobe Illustrator 16.0.4, SVG Export Plug-In . SVG Version: 6.00 Build 0)  -->
<!DOCTYPE svg PUBLIC "-//W3C//DTD SVG 1.1//EN" "http://www.w3.org/Graphics/SVG/1.1/DTD/svg11.dtd">
<svg version="1.1" id="Layer_1" xmlns="http://www.w3.org/2000/svg" xmlns:xlink="http://www.w3.org/1999/xlink" x="0px" y="0px"
	 width="420px" height="280px" viewBox="45 0 420 280" enable-background="new 45 0 420 280" xml:space="preserve">
<g>
	<path fill="#CF242E" d="M451.727,169.714c0,4.719-3.823,8.543-8.539,8.543H328.46c-4.718,0-8.543-3.824-8.543-8.543V140.86
		c0-4.709,3.825-8.537,8.543-8.537l114.729-21.094c4.716,0,8.54,3.824,8.54,8.542v49.942H451.727z"/>
	<g>
		<path d="M75.028,263.933c0,7.631,6.187,13.818,13.813,13.818h256.078c7.633,0,13.82-6.188,13.82-13.818V53.922
			c0-7.623-6.188-13.815-13.82-13.815L88.842,5.984c-7.627,0-13.814,6.186-13.814,13.818V263.933z"/>
		<path fill="#FFFFFF" d="M340.047,247.333c0,7.58-6.145,13.727-13.721,13.727H71.996c-7.58,0-13.725-6.146-13.725-13.727v-146.37
			c0-7.567,6.145-13.717,13.725-13.717l254.33-33.892c7.576,0,13.721,6.145,13.721,13.726V247.333z"/>
		<path fill="#231F20" d="M74.542,258.979h249.239c7.424,0,13.449-6.02,13.449-13.451V68.88c0,0-4.255,169.281-4.64,176.199
			c-0.385,6.916-5.381,8.836-8.84,9.605C320.291,255.458,74.542,258.979,74.542,258.979z"/>
		<path d="M302.28,237.278c0,6.531-5.296,11.832-11.835,11.832H82.694c-6.536,0-11.829-5.301-11.829-11.832V111.025
			c0-6.531,5.293-11.839,11.829-11.839l207.751-26.137c6.539,0,11.835,5.301,11.835,11.836V237.278z"/>
		<g>
			<g>
				<path fill="#FFFFFF" d="M125.281,135.785v4.13c0,5.078-2.449,7.849-7.441,7.849h-2.357v11.926h-4.989v-31.753h7.347
					C122.832,127.937,125.281,130.704,125.281,135.785z M115.482,132.475v10.745h2.357c1.59,0,2.451-0.719,2.451-2.99v-4.761
					c0-2.268-0.861-2.994-2.451-2.994H115.482z"/>
				<path fill="#FFFFFF" d="M137.119,159.69c-0.271-0.818-0.452-1.314-0.452-3.904v-4.988c0-2.947-0.997-4.035-3.269-4.035h-1.721
					v12.928h-4.989v-31.753h7.528c5.174,0,7.395,2.402,7.395,7.304v2.492c0,3.272-1.041,5.356-3.265,6.399v0.092
					c2.493,1.043,3.309,3.4,3.309,6.715v4.896c0,1.541,0.049,2.678,0.546,3.855H137.119L137.119,159.69z M131.678,132.475v9.751
					h1.948c1.862,0,2.996-0.816,2.996-3.354v-3.133c0-2.269-0.774-3.264-2.542-3.264H131.678z"/>
				<path fill="#FFFFFF" d="M149.005,141.319h6.851v4.537h-6.851v9.299h8.618v4.535h-13.61v-31.754h13.61v4.538h-8.618V141.319z
					 M144.469,126.259l4.037-5.036h4.49l4.037,5.036h-4.263l-2.042-2.498l-1.995,2.498H144.469z"/>
				<path fill="#FFFFFF" d="M170.324,150.479h0.091l3.358-22.543h6.939v31.754h-4.719v-22.767h-0.088l-3.359,22.767h-4.715
					l-3.631-22.452h-0.092v22.452h-4.356v-31.754h6.942L170.324,150.479z"/>
				<path fill="#FFFFFF" d="M183.432,127.937h4.989v31.754h-4.989V127.937z"/>
				<path fill="#FFFFFF" d="M190.734,135.559c0-5.082,2.678-7.984,7.578-7.984c4.898,0,7.576,2.902,7.576,7.984v16.513
					c0,5.076-2.678,7.98-7.576,7.98c-4.9,0-7.578-2.904-7.578-7.98V135.559z M195.727,152.384c0,2.27,1,3.131,2.586,3.131
					c1.588,0,2.582-0.861,2.582-3.131v-17.145c0-2.27-0.994-3.127-2.582-3.127c-1.586,0-2.586,0.857-2.586,3.127V152.384z"/>
			</g>
			<g>
				<polygon fill="#EA212E" points="210.521,203.011 228.598,200.353 228.598,159.567 205.894,159.567 				"/>
				<path fill="#FFFFFF" d="M91.842,184.458c0-1.023-0.052-2.252-0.4-3.225c-0.401-1.021-1.053-1.738-2.357-1.738
					c-2.703,0-3.004,3.375-3.004,8.488c0,5.783,0.904,7.674,3.004,7.674c2.857,0,3.109-2.965,3.109-4.91l6.312,0.92
					c-0.601,6.24-4.107,9.512-10.022,9.512c-7.314,0-11.122-6.547-11.122-12.889c0-7.006,3.808-14.008,11.475-14.008
					c8.62,0,9.92,7.621,9.92,10.176H91.842L91.842,184.458z"/>
				<path fill="#FFFFFF" d="M109.943,173.493c7.569,0,11.331,5.678,11.331,13.344c0,7.982-3.612,13.557-11.331,13.557
					c-7.711,0-11.322-5.572-11.322-13.557C98.621,179.171,102.379,173.493,109.943,173.493L109.943,173.493z M109.943,195.177
					c2.011,0,2.911-1.844,2.911-8.34c0-5.93-0.602-8.131-2.911-8.131c-2.302,0-2.902,2.201-2.902,8.131
					C107.041,193.335,107.943,195.177,109.943,195.177L109.943,195.177z"/>
				<path fill="#FFFFFF" d="M121.875,174.149h8.12v3.428h0.099c1.702-2.611,4.259-4.041,7.164-4.041
					c3.256,0,5.362,2.248,5.362,5.779v20.504h-8.114v-18.154c0-1.379-0.453-2.299-1.958-2.299c-0.854,0-1.553,0.357-2.102,1.07
					l-0.451,0.617v18.766h-8.12V174.149L121.875,174.149z"/>
				<path fill="#FFFFFF" d="M146.377,180.007h-3.307v-5.83h3.307v-9.203h8.116v9.203h4.465v5.83h-4.465v10.893
					c0,1.793,0,3.117,2.606,3.117c0.649,0,1.302-0.102,1.858-0.25v6.029c-1.606,0.459-3.962,0.664-5.716,0.664
					c-4.312,0-6.865-1.893-6.865-6.492L146.377,180.007L146.377,180.007z"/>
				<path fill="#FFFFFF" d="M160.24,174.149h8.119v25.67h-8.119V174.149L160.24,174.149z M160.24,164.993h8.119v7.359h-8.119
					V164.993L160.24,164.993z"/>
				<path fill="#FFFFFF" d="M201.769,173.544c7.566,0,11.324,5.672,11.324,13.352c0,7.975-3.607,13.549-11.324,13.549
					c-7.72,0-11.328-5.574-11.328-13.549C190.441,179.216,194.203,173.544,201.769,173.544L201.769,173.544z M201.769,195.226
					c2.004,0,2.904-1.844,2.904-8.332c0-5.936-0.601-8.133-2.904-8.133s-2.91,2.197-2.91,8.133
					C198.859,193.382,199.764,195.226,201.769,195.226L201.769,195.226z"/>
				<path fill="#FFFFFF" d="M213.926,164.929h9.322l-1.555,23.729h-5.407L213.926,164.929L213.926,164.929z M214.478,190.979h8.723
					v8.9h-8.723V190.979L214.478,190.979z"/>
				<path fill="#FFFFFF" d="M193.477,178.558c-0.752-0.723-1.704-1.33-2.857-1.33c-0.602,0-1.15,0.252-1.352,0.561
					c0.952,1.127,1.203,2.713,1.203,4.189c0,5.068-5.462,7.572-9.923,7.572c-1.553,0-2.558-0.207-3.458-0.41
					c-0.2,0.256-0.853,0.971-0.853,1.484c0,1.842,2.205,1.842,5.062,1.842c4.813,0,11.272,0.609,11.272,7.059
					c0,5.262-5.058,7.973-12.473,7.973c-2.857,0-11.679-0.406-11.679-5.318c0-2.758,2.455-4.088,4.762-4.496v-0.102
					c-2.004-0.668-3.56-1.842-3.56-4.197c0-2.504,2.808-4.395,4.91-4.904v-0.105c-3.156-1.377-4.709-3.836-4.709-6.75
					c0-5.826,6.167-8.078,10.275-8.078c2.405,0,5.062,0.562,6.962,1.84c0.603-1.43,4.013-3.375,6.416-3.375v6.547H193.477z
					 M174.732,200.954c0,2.096,3.762,2.25,5.366,2.25c1.902,0,5.561,0,5.561-2.25c0-2.354-4.06-2.354-5.561-2.354
					C178.945,198.599,174.732,198.599,174.732,200.954L174.732,200.954z M177.339,181.778c0,1.842,0.651,4.092,2.76,4.092
					c2.252,0,2.853-2.354,2.853-4.451c0-1.992-0.75-4.191-2.853-4.191C177.842,177.228,177.339,179.833,177.339,181.778
					L177.339,181.778z"/>
			</g>
			<g>
				<path fill="#FFFFFF" d="M77.018,132.004c3.837,0,4.691-1.849,5.464-3.968h3.337v31.59h-4.964v-24.103h-3.837V132.004z"/>
				<path fill="#FFFFFF" d="M102.789,128.036v4.331l-7.314,27.259h-4.962l7.267-27.079h-9.884v-4.511H102.789z"/>
				<path fill="#FFFFFF" d="M104.013,134.488c0-1.309,0.693-2.077,1.985-2.077s1.985,0.769,1.985,2.077v2.903
					c0,1.316-0.693,2.08-1.985,2.08s-1.985-0.764-1.985-2.08V134.488z M107.983,140.239v1.293h-3.971v-1.293H107.983z
					 M105.323,137.467c0,0.602,0.244,0.809,0.675,0.809c0.412,0,0.673-0.207,0.673-0.809v-3.05c0-0.602-0.261-0.807-0.673-0.807
					c-0.431,0-0.675,0.205-0.675,0.807V137.467z"/>
			</g>
			<g>
				<path fill="#FFFFFF" d="M230.932,159.515h31.188v9.178h-10.547v55.039h-10.088v-55.039h-10.553V159.515L230.932,159.515z"/>
				<path fill="#FFFFFF" d="M281.655,211.896h0.184l7.612-52.381h9.266l-9.904,64.217h-15.045l-9.91-64.217h10.187L281.655,211.896z
					"/>
			</g>
			<g>
				<path fill="#FFFFFF" d="M210.562,205.058h4.652c2.945,0,4.39,1.633,4.39,4.631v9.467c0,2.994-1.444,4.625-4.39,4.625h-4.652
					V205.058z M213.504,207.731v13.371h1.66c0.936,0,1.498-0.48,1.498-1.818v-9.732c0-1.338-0.562-1.818-1.498-1.818h-1.66V207.731z
					"/>
				<path fill="#FFFFFF" d="M223.47,212.948h4.039v2.676h-4.039v5.479h5.081v2.68h-8.022v-18.725h8.022v2.676h-5.081V212.948z"/>
			</g>
		</g>
		<path d="M332.299,136.346c0,6.678-5.416,12.1-12.102,12.1c-6.685,0-12.104-5.422-12.104-12.1c0-6.69,5.419-12.106,12.104-12.106
			C326.883,124.24,332.299,129.656,332.299,136.346z"/>
		<rect x="307.61" y="159.095" width="25.177" height="4.846"/>
		<rect x="307.61" y="169.753" width="25.177" height="4.836"/>
		<rect x="307.61" y="180.401" width="25.177" height="4.838"/>
		<rect x="307.61" y="191.052" width="25.177" height="4.838"/>
		<path fill="#FFFFFF" d="M148.451,85.301c-0.082-0.953-0.126-1.919-0.126-2.896c0-18.183,14.736-32.922,32.922-32.922
			c15.91,0,29.187,11.288,32.251,26.29L148.451,85.301z"/>
		<polygon fill="#FFFFFF" points="182.138,63.895 178.72,67.316 139.686,28.292 143.112,24.868 		"/>
		
			<rect x="200.613" y="18.5" transform="matrix(0.7074 0.7069 -0.7069 0.7074 91.9989 -130.026)" fill="#FFFFFF" width="4.841" height="55.191"/>
	</g>
	<g>
		<path fill="#FFFFFF" d="M376.135,132.718l2.375,12.683l2.354-12.683h1.5l-2.729,14.578h-2.396l-2.749-14.578H376.135z"/>
		<path fill="#FFFFFF" d="M383.884,136.238c0-2.229,1.104-3.666,3.333-3.666c2.249,0,3.354,1.437,3.354,3.666v7.54
			c0,2.207-1.104,3.666-3.354,3.666c-2.229,0-3.333-1.459-3.333-3.666V136.238z M385.487,143.86c0,1.334,0.562,2.104,1.729,2.104
			c1.188,0,1.729-0.77,1.729-2.104v-7.705c0-1.312-0.542-2.104-1.729-2.104c-1.167,0-1.729,0.792-1.729,2.104V143.86z"/>
		<path fill="#FFFFFF" d="M394.632,147.296v-13.1h-2.687v-1.479h6.978v1.479h-2.687v13.1H394.632z"/>
		<path fill="#FFFFFF" d="M405.63,139.175v1.458h-3.562v5.186h4.374v1.479h-5.999v-14.579h5.999v1.479h-4.374v4.978L405.63,139.175
			L405.63,139.175z"/>
		<path fill="#FFFFFF" d="M413.648,144.36l-0.562,2.938h-1.499l2.791-14.579h2.354l2.791,14.579h-1.625l-0.562-2.938H413.648z
			 M413.856,142.966h3.25l-1.646-8.415L413.856,142.966z"/>
		<path fill="#FFFFFF" d="M422.521,147.296v-13.1h-2.688v-1.479h6.979v1.479h-2.688v13.1H422.521z"/>
		<path fill="#FFFFFF" d="M433.52,139.175v1.458h-3.562v5.186h4.374v1.479h-5.999v-14.579h5.999v1.479h-4.374v4.978L433.52,139.175
			L433.52,139.175z M433.395,129.76l-1.938,2.146h-1.124l1.458-2.146H433.395z"/>
		<path fill="#FFFFFF" d="M369.517,154.528c-0.874,0-1.425,0.475-1.425,1.725v1.875h-2.599v-1.701c0-2.799,1.398-4.396,4.099-4.396
			s4.101,1.6,4.101,4.396c0,5.5-5.476,7.551-5.476,10.424c0,0.125,0,0.25,0.025,0.375h5.199v2.5h-7.948v-2.15
			c0-5.148,5.448-5.998,5.448-11.047C370.941,154.952,370.392,154.528,369.517,154.528z"/>
		<path fill="#FFFFFF" d="M382.715,152.229v2.398l-4.05,15.096h-2.749l4.024-14.996h-5.475v-2.498H382.715z"/>
		<path fill="#FFFFFF" d="M391.465,155.146c2.271,0,3.312,1.373,3.312,3.623v7.352c0,2.23-1.041,3.605-3.312,3.605h-3.416v-14.58
			H391.465L391.465,155.146z M391.444,168.245c1.166,0,1.729-0.729,1.729-2.061v-7.498c0-1.334-0.562-2.062-1.75-2.062h-1.749
			v11.621H391.444z"/>
		<path fill="#FFFFFF" d="M401.9,161.601v1.459h-3.562v5.186h4.374v1.48h-5.999v-14.58h5.999v1.479h-4.374v4.979h3.562V161.601z"/>
		<path fill="#FFFFFF" d="M409.92,166.788l-0.562,2.938h-1.499l2.791-14.58h2.354l2.791,14.58h-1.625l-0.562-2.938H409.92z
			 M410.128,165.392h3.25l-1.646-8.414L410.128,165.392z"/>
		<path fill="#FFFFFF" d="M420.751,155.146c2.271,0,3.166,1.082,3.166,3.227v0.689c0,1.541-0.438,2.5-1.708,2.895
			c1.416,0.396,1.957,1.521,1.957,3.125v1.229c0,2.188-1.062,3.416-3.332,3.416h-3.354v-14.578h3.271V155.146z M420.354,161.331
			c1.292,0,1.958-0.418,1.958-1.938v-0.855c0-1.291-0.438-1.916-1.604-1.916h-1.604v4.707h1.25V161.331z M420.834,168.245
			c1.188,0,1.729-0.625,1.729-1.979v-1.291c0-1.625-0.646-2.166-2.041-2.166h-1.416v5.436H420.834z"/>
		<path fill="#FFFFFF" d="M429.311,155.146c2.291,0,3.249,1.166,3.249,3.332v1.188c0,1.604-0.562,2.604-1.812,2.998
			c1.333,0.396,1.833,1.48,1.833,3.041v2.271c0,0.646,0.021,1.25,0.291,1.75h-1.646c-0.188-0.416-0.271-0.791-0.271-1.771v-2.291
			c0-1.646-0.771-2.166-2.124-2.166h-1.146v6.229h-1.625v-14.58H429.311L429.311,155.146z M428.896,162.019
			c1.29,0,2.062-0.418,2.062-2v-1.396c0-1.312-0.479-2-1.687-2h-1.583v5.396H428.896z"/>
		<path fill="#FFFFFF" d="M436.311,155.146v14.578h-1.625v-14.578H436.311z"/>
		<path fill="#FFFFFF" d="M438.395,169.724v-14.578h1.625v13.1h4.164v1.48h-5.789V169.724z"/>
	</g>
</g>
</svg>
