<?xml version="1.0" encoding="utf-8"?>
<!-- Generator: Adobe Illustrator 16.0.4, SVG Export Plug-In . SVG Version: 6.00 Build 0)  -->
<!DOCTYPE svg PUBLIC "-//W3C//DTD SVG 1.1//EN" "http://www.w3.org/Graphics/SVG/1.1/DTD/svg11.dtd">
<svg version="1.1" id="Layer_1" xmlns="http://www.w3.org/2000/svg" xmlns:xlink="http://www.w3.org/1999/xlink" x="0px" y="0px"
	 width="94.284px" height="94.284px" viewBox="0 0 94.284 94.284" enable-background="new 0 0 94.284 94.284" xml:space="preserve">
<circle fill="#C0081F" cx="47.142" cy="47.142" r="47.142"/>
<g>
	<path fill="#EBE9DD" d="M47.151,74.746l-0.851-0.661c-2.403-1.864-23.532-18.358-25.804-23.709
		c-3.393-8.004,0.312-17.293,8.259-20.708c1.966-0.848,4.036-1.276,6.157-1.276c4.762,0,9.282,2.217,12.229,5.9
		c2.947-3.683,7.468-5.9,12.228-5.9c2.123,0,4.193,0.428,6.16,1.277c7.947,3.414,11.649,12.703,8.257,20.707
		c-2.123,5.005-23.371,21.804-25.786,23.702L47.151,74.746z"/>
</g>
</svg>
