<?xml version="1.0" encoding="utf-8"?>
<!-- Generator: Adobe Illustrator 16.0.4, SVG Export Plug-In . SVG Version: 6.00 Build 0)  -->
<!DOCTYPE svg PUBLIC "-//W3C//DTD SVG 1.1//EN" "http://www.w3.org/Graphics/SVG/1.1/DTD/svg11.dtd">
<svg version="1.1" id="Layer_1" xmlns="http://www.w3.org/2000/svg" xmlns:xlink="http://www.w3.org/1999/xlink" x="0px" y="0px"
	 width="94.284px" height="94.284px" viewBox="0 0 94.284 94.284" enable-background="new 0 0 94.284 94.284" xml:space="preserve">
<circle fill="#282828" cx="47.142" cy="47.142" r="47.142"/>
<g>
	<path fill="#EBE9DD" d="M47.152,74.746L46.3,74.085c-2.401-1.864-23.532-18.358-25.803-23.709
		c-3.394-8.004,0.311-17.293,8.259-20.708c1.965-0.848,4.037-1.276,6.158-1.276c4.761,0,9.281,2.217,12.229,5.9
		c2.947-3.683,7.467-5.9,12.229-5.9c2.121,0,4.192,0.428,6.158,1.277c7.947,3.414,11.652,12.703,8.258,20.707
		C71.664,55.381,50.416,72.18,48,74.078L47.152,74.746z M34.914,31.156c-1.743,0-3.447,0.352-5.066,1.049
		c-6.555,2.818-9.609,10.485-6.806,17.091c1.461,3.445,14.894,14.749,24.099,21.94c8.961-7.094,22.757-18.769,24.101-21.94
		c2.804-6.605-0.249-14.272-6.804-17.089c-1.619-0.699-3.324-1.051-5.066-1.051c-4.49,0-8.722,2.398-11.043,6.259l-1.186,1.971
		l-1.184-1.969C43.636,33.555,39.404,31.156,34.914,31.156z"/>
</g>
</svg>
