<?xml version="1.0" encoding="utf-8"?>
<!-- Generator: Adobe Illustrator 16.0.4, SVG Export Plug-In . SVG Version: 6.00 Build 0)  -->
<!DOCTYPE svg PUBLIC "-//W3C//DTD SVG 1.1//EN" "http://www.w3.org/Graphics/SVG/1.1/DTD/svg11.dtd">
<svg version="1.1" id="Layer_1" xmlns="http://www.w3.org/2000/svg" xmlns:xlink="http://www.w3.org/1999/xlink" x="0px" y="0px"
	 width="760px" height="310px" viewBox="0 0 760 310" enable-background="new 0 0 760 310" xml:space="preserve">
<path fill="#C0081F" d="M332.168,253.513c9.825,0,7.291-14.896,15.85-23.139c4.12-4.119,8.24-6.022,14.579-6.022
	c5.072,0,10.777,2.218,13.947,4.12c13.312,7.29,30.745,24.724,53.885,24.724c28.844,0,45.008-23.138,45.008-75.121h-3.486
	c-0.633,22.822-7.924,37.72-31.379,37.72c-12.68,0-38.986-5.389-49.764-5.389c-11.095,0-19.335,2.538-28.844,7.29l-0.319-0.317
	c0,0,23.774-14.581,32.966-20.919c29.16-19.969,74.17-47.544,74.17-86.215c0-34.866-30.429-50.397-62.442-50.397
	c-44.057,0-82.41,38.036-82.41,75.12c0,23.773,14.262,35.502,31.379,35.502c20.919,0,38.353-14.897,44.06-35.184l-2.537-0.951
	c-5.389,14.896-14.581,25.039-27.894,25.039c-12.362,0-17.75-10.775-17.75-27.576c0-45.325,24.725-66.562,46.279-66.562
	c18.384,0,27.258,14.581,27.258,46.277c0,43.424-34.548,77.022-68.149,107.135c-2.852,2.851-6.971,6.021-11.093,9.191
	c-9.824,7.29-21.553,9.826-21.553,17.75C323.928,250.343,328.049,253.513,332.168,253.513L332.168,253.513z"/>
<path fill="#C0081F" d="M543.244,281.365c45.009,0,83.362-35.501,83.362-96.99c0-61.176-38.354-96.676-83.362-96.676
	c-44.692,0-83.044,35.5-83.044,96.676C460.2,245.864,498.552,281.365,543.244,281.365 M543.244,277.562
	c-28.843,0-38.667-32.33-38.667-93.187c0-60.857,9.824-92.872,38.667-92.872c29.163,0,38.671,32.014,38.671,92.872
	C581.915,245.231,572.407,277.562,543.244,277.562"/>
<g>
	<g>
		<path d="M59.501,129.117l4.614-0.047c0.377,0,0.472-0.094,0.472-0.423v-30.75c0-0.283-0.095-0.423-0.472-0.423l-4.614-0.047
			v-0.471h14.927c7.911,0,12.148,2.778,12.148,8.711c0,5.934-5.32,8.711-12.007,8.711h-4.85v14.269c0,0.329,0.094,0.423,0.471,0.423
			l4.379,0.047v0.472H59.501V129.117z M74.334,113.814c2.308,0,3.861-0.33,4.897-1.271c1.413-1.318,1.79-3.721,1.79-6.875
			c0-2.919-0.472-5.227-1.79-6.591c-1.036-1.083-2.543-1.554-4.803-1.554h-4.709v16.292H74.334z"/>
		<path d="M108.809,123.186l-0.188-5.229c-0.142-3.907-2.59-4.709-5.698-4.709h-5.18v15.399c0,0.329,0.094,0.423,0.471,0.423
			l4.379,0.047v0.472H87.524v-0.472l4.615-0.047c0.376,0,0.471-0.094,0.471-0.423v-30.75c0-0.283-0.094-0.423-0.471-0.423
			l-4.615-0.047v-0.471h15.774c8.146,0,11.867,3.014,11.867,8.146c0,5.18-4.238,7.393-9.323,7.911v0.095
			c4.521,0.611,8.241,2.636,8.335,8.38c0.046,1.367,0.093,3.721,0.282,4.568c0.472,2.166,1.319,2.873,2.826,2.873
			c1.883,0,3.249-1.413,3.249-5.463h0.518c0,4.475-1.507,6.734-6.027,6.734C111.54,130.201,108.997,127.847,108.809,123.186z
			 M103.064,112.59c1.365,0,3.107-0.234,3.956-0.753c1.93-1.225,2.684-3.72,2.684-6.781c0-3.155-0.895-5.979-3.06-6.97
			c-0.848-0.376-2.543-0.564-4.003-0.564h-4.474c-0.283,0-0.424,0.14-0.424,0.423v14.645H103.064z"/>
	</g>
	<g>
		<path d="M122.449,129.117l4.615-0.047c0.377,0,0.471-0.141,0.471-0.423v-30.75c0-0.283-0.094-0.423-0.471-0.423l-4.615-0.047
			v-0.471h27.5v11.207h-0.47c-1.225-5.084-2.025-7.204-4.709-9.229c-0.989-0.753-3.155-1.365-5.838-1.365h-5.839
			c-0.282,0-0.423,0.14-0.423,0.423v14.974h1.789c2.025,0,3.721-0.236,4.568-0.989c1.178-1.083,2.402-3.108,2.402-6.028h0.518
			v14.597h-0.518c0-2.873-0.801-4.803-2.308-5.979c-0.941-0.754-2.684-1.037-4.662-1.037h-1.789v15.021
			c0,0.282,0.094,0.424,0.471,0.424h5.98c4.239,0,6.31-0.377,8.57-3.061c1.742-2.024,3.014-5.273,3.814-8.477h0.471v12.149h-29.525
			V129.117z M131.538,94.979l6.45-7.816h0.895l6.452,7.816l-0.189,0.141l-6.687-4.426l-6.734,4.426L131.538,94.979z"/>
		<path d="M160.975,99.122h-0.094v27.077c0,1.787,0.753,2.871,2.166,2.871l2.92,0.047v0.472h-10.925v-0.472l2.92-0.047
			c1.365,0,2.167-0.988,2.167-2.871V98.887c0-0.941-0.424-1.412-1.131-1.412l-3.956-0.047v-0.471h10.312l9.889,25.003h0.094
			l8.477-25.003h10.218v0.471l-3.956,0.047c-0.706,0-1.13,0.423-1.13,1.365v29.808c0,0.329,0.094,0.423,0.471,0.423l4.615,0.047
			v0.472h-15.304v-0.472l4.615-0.047c0.377,0,0.471-0.094,0.471-0.423V99.122h-0.094l-10.266,30.562h-0.33L160.975,99.122z"/>
	</g>
	<g>
		<path d="M196.706,129.117l4.615-0.047c0.377,0,0.472-0.094,0.472-0.423v-30.75c0-0.329-0.095-0.423-0.472-0.423l-4.615-0.047
			v-0.471h15.304v0.471l-4.615,0.047c-0.377,0-0.471,0.095-0.471,0.423v30.75c0,0.329,0.094,0.423,0.471,0.423l4.615,0.047v0.472
			h-15.304V129.117z"/>
		<path d="M213.096,113.438c0-9.183,6.498-16.952,15.774-16.952c9.277,0,15.775,7.769,15.775,16.952
			c0,9.182-6.498,16.904-15.775,16.904C219.594,130.342,213.096,122.619,213.096,113.438z M233.297,128.6
			c3.297-2.166,5.509-7.533,5.509-15.162c0-7.628-2.212-13.044-5.509-15.209c-1.648-1.083-2.966-1.177-4.426-1.177
			c-1.459,0-2.778,0.093-4.426,1.177c-3.296,2.165-5.509,7.582-5.509,15.209c0,7.629,2.213,12.996,5.509,15.162
			c1.648,1.084,2.966,1.177,4.426,1.177C230.331,129.776,231.649,129.684,233.297,128.6z"/>
	</g>
</g>
<g>
	<g>
		<path d="M4,166.114c0-16.931,12.763-31.17,29.693-31.17c7.728,0,13.719,3.995,16.757,8.423h0.087l5.036-7.293h0.607v24.483h-0.868
			c-1.997-16.062-9.811-24.483-21.619-24.483c-2.518,0-5.557,0.174-8.595,2.171c-6.078,3.992-10.159,13.804-10.159,27.869
			s3.907,24.571,10.159,28.13c2.778,1.562,5.903,1.998,8.769,1.998c12.329,0,19.883-6.686,22.748-18.494l1.129,0.174
			c-3.213,14.413-13.197,19.449-24.223,19.449C16.416,197.371,4,183.045,4,166.114z"/>
		<path d="M59.126,195.113h8.508c0.695,0,0.869-0.348,0.869-0.869v-56.693c0-0.608-0.174-0.782-0.869-0.782l-8.508-0.087v-0.867
			h28.217v0.867l-8.508,0.087c-0.694,0-0.868,0.174-0.868,0.782v56.521c0,0.521,0.174,0.868,0.868,0.868h11.374
			c6.078,0,8.509-1.042,12.502-5.904c3.213-3.906,5.383-10.592,6.946-16.496h0.868v23.441H59.126V195.113z"/>
	</g>
	<g>
		<path d="M112.331,195.113l2.865-0.088c3.039-0.086,3.82-1.561,5.296-5.643l19.188-53.135h1.042l19.274,53.135
			c1.476,4.082,2.083,5.557,5.209,5.643l3.299,0.088v0.867h-24.311v-0.867l4.167-0.088c3.126-0.086,2.865-1.648,1.737-5.121
			l-4.862-13.633h-18.754l-4.861,13.633c-1.216,3.385-1.389,4.949,1.736,5.035l4.167,0.174v0.867h-15.194V195.113z M144.802,175.23
			l-8.769-24.57h-0.261l-8.855,24.57H144.802z"/>
		<path d="M169.975,174.449v-36.898c0-0.608-0.173-0.782-0.868-0.782l-8.162-0.087v-0.867h27.87v0.867l-8.508,0.087
			c-0.695,0-0.868,0.174-0.868,0.782v37.68c0,14.586,3.386,20.143,17.104,20.143c7.988,0,13.024-3.645,15.455-8.422
			c1.563-3.039,2.17-7.119,2.17-11.894v-33.427c0-2.866-1.389-4.862-3.994-4.862l-5.383-0.087v-0.867h19.796v0.867l-5.123,0.087
			c-2.518,0-3.907,1.824-3.907,4.862v32.732c0,5.557-0.434,9.549-2.518,13.457c-2.865,5.557-8.856,9.203-18.58,9.203
			C177.615,197.023,169.975,191.205,169.975,174.449z"/>
	</g>
	<g>
		<path d="M226.285,195.113l8.422-0.088c0.694,0,0.955-0.26,0.955-0.781v-56.693c0-0.523-0.261-0.782-0.955-0.782l-8.422-0.087
			v-0.867h29.607c17.364,0,30.214,10.504,30.214,30.127c0,19.883-13.457,30.039-30.041,30.039h-29.78V195.113z M255.718,194.854
			c3.386,0,7.206-0.436,9.984-2.171c5.99-3.908,9.638-12.155,9.638-26.741c0-15.369-2.519-23.79-9.812-27.264
			c-2.691-1.303-6.338-1.822-10.679-1.822h-9.029c-0.521,0-0.695,0.26-0.695,0.781v56.435c0,0.521,0.174,0.782,0.869,0.782H255.718z
			"/>
		<path d="M285.23,195.113l8.508-0.088c0.695,0,0.868-0.172,0.868-0.781v-56.693c0-0.608-0.173-0.782-0.868-0.782l-8.508-0.087
			v-0.867h28.216v0.867l-8.507,0.087c-0.694,0-0.868,0.174-0.868,0.782v56.693c0,0.609,0.174,0.781,0.868,0.781l8.507,0.088v0.867
			H285.23V195.113z"/>
	</g>
	<g>
		<path d="M314.598,195.113l2.865-0.088c3.038-0.086,3.819-1.561,5.295-5.643l19.189-53.135h1.042l19.272,53.135
			c1.477,4.082,2.085,5.557,5.209,5.643l3.302,0.088v0.867h-24.311v-0.867l4.168-0.088c3.126-0.086,2.864-1.648,1.736-5.121
			l-4.862-13.633h-18.753l-4.862,13.633c-1.217,3.385-1.39,4.949,1.736,5.035l4.167,0.174v0.867h-15.194V195.113z M347.067,175.23
			l-8.769-24.57h-0.259l-8.856,24.57H347.067z"/>
	</g>
</g>
<g>
	<g>
		<path d="M624.177,217.685l1.657-0.053c1.758-0.052,2.209-0.903,3.062-3.262l11.091-30.714h0.604l11.142,30.714
			c0.853,2.358,1.205,3.21,3.011,3.262l1.907,0.053v0.499h-14.054v-0.499l2.409-0.053c1.806-0.052,1.656-0.953,1.005-2.96
			l-2.813-7.88h-10.84l-2.81,7.88c-0.702,1.956-0.804,2.861,1.005,2.908l2.407,0.104v0.499h-8.783V217.685z M642.948,206.189
			l-5.07-14.201h-0.149l-5.119,14.201H642.948z"/>
		<path d="M665.38,187.77h-0.051v27.053c0,1.655,0.805,2.81,2.31,2.81l3.111,0.053v0.499h-11.644v-0.499l3.16-0.053
			c1.455,0,2.261-1.055,2.261-2.81v-27.151c0-0.952,0-1.255-1.155-2.46c-0.903-0.953-1.657-1.154-3.515-1.254l-1.051-0.052v-0.499
			h10.086l19.322,25.242h0.101v-22.184c0-1.656-0.751-2.508-2.257-2.508l-3.163-0.052v-0.499h11.493v0.499l-3.012,0.052
			c-1.455,0-2.258,0.754-2.258,2.508v32.12h-0.452L665.38,187.77z"/>
	</g>
	<g>
		<path d="M695.428,200.971c0-9.789,6.927-18.068,16.814-18.068c9.886,0,16.812,8.279,16.812,18.068
			c0,9.786-6.927,18.018-16.812,18.018C702.354,218.988,695.428,210.757,695.428,200.971z M716.958,217.132
			c3.514-2.31,5.873-8.031,5.873-16.161c0-8.131-2.359-13.902-5.873-16.212c-1.756-1.155-3.163-1.254-4.716-1.254
			c-1.557,0-2.961,0.099-4.72,1.254c-3.513,2.31-5.872,8.081-5.872,16.212c0,8.13,2.359,13.852,5.872,16.161
			c1.759,1.154,3.163,1.254,4.72,1.254C713.795,218.386,715.202,218.286,716.958,217.132z"/>
		<path d="M736.127,214.521h-0.151l-2.91,3.563h-0.201v-12.849h0.503c0.551,3.615,1.757,6.976,3.613,9.186
			c1.906,2.257,4.918,3.61,7.427,3.61c5.27,0,7.931-2.909,7.931-7.174c0-3.665-2.408-5.823-8.732-7.981
			c-5.571-1.857-10.338-4.314-10.338-10.79c0-5.471,4.113-9.185,9.685-9.185c4.065,0,6.827,2.26,8.28,4.117h0.15l2.359-3.666h0.302
			v11.344h-0.503c-1.203-6.476-4.867-11.192-10.64-11.192c-3.061,0-6.423,1.356-6.423,5.371c0,4.466,3.714,5.719,9.234,7.778
			c6.272,2.309,10.489,5.119,10.489,11.392c0,5.622-4.566,10.589-11.795,10.589C740.844,218.635,737.934,216.628,736.127,214.521z"
			/>
	</g>
</g>
<radialGradient id="SVGID_1_" cx="573.4795" cy="155.2363" r="123.8961" gradientTransform="matrix(1 0 0 3 0 -310.4727)" gradientUnits="userSpaceOnUse">
	<stop  offset="0" style="stop-color:#000005"/>
	<stop  offset="1" style="stop-color:#FFFFFF"/>
</radialGradient>
<path fill="url(#SVGID_1_)" d="M657.478,77.019l-7.933-14.419c0,0-2.832-5.15,0.501-9.993l5.381-7.819c0,0,4.998-7.263,0.818-15.029
	l-0.962-1.788c0,0-3.958-7.355-15.693-7.355c-1.641,0-3.434,0.145-5.392,0.472l-21.666,3.634c0,0-14.493,2.428-2.242,10.545
	l15.088,9.994c0,0,8.592,5.691,5.039,5.691c-1.058,0-3.194-0.504-6.961-1.818L495.151,4.411c0,0-4.091-1.425-6.559-1.425
	c-2.476,0-3.321,1.431,3.21,7.167l113.753,99.869c0,0,9.871,8.664,9.349,21.918c-0.081,1.984-0.393,4.073-1.005,6.255
	l-38.458,136.581l-3.008,10.691c0,0-3.188,11.317,7.821,15.441l16.394,6.143c0,0,1.172,0.437,2.103,0.437
	c1.088,0,1.846-0.597,0.027-3.188l-6.224-8.884c0,0-8.788-12.539-4.135-27.841c0.205-0.688,60.734-159.786,60.734-159.786
	s1.047-2.747,2.926-5.009l4.946-5.955C657.026,96.825,663.852,88.607,657.478,77.019z"/>
</svg>
