<?xml version="1.0" encoding="utf-8"?>
<!-- Generator: Adobe Illustrator 16.0.4, SVG Export Plug-In . SVG Version: 6.00 Build 0)  -->
<!DOCTYPE svg PUBLIC "-//W3C//DTD SVG 1.1//EN" "http://www.w3.org/Graphics/SVG/1.1/DTD/svg11.dtd">
<svg version="1.1" id="Layer_1" xmlns="http://www.w3.org/2000/svg" xmlns:xlink="http://www.w3.org/1999/xlink" x="0px" y="0px"
	 width="770px" height="320px" viewBox="0 0 770 320" enable-background="new 0 0 770 320" xml:space="preserve">
<path fill="#C0081F" d="M337.877,258.101c9.783,0,7.259-14.833,15.782-23.039c4.103-4.104,8.205-5.999,14.517-5.999
	c5.05,0,10.732,2.21,13.888,4.104c13.255,7.26,30.615,24.619,53.656,24.619c28.722,0,44.818-23.042,44.818-74.803h-3.473
	c-0.63,22.724-7.89,37.56-31.245,37.56c-12.627,0-38.821-5.367-49.554-5.367c-11.047,0-19.252,2.526-28.721,7.26l-0.317-0.314
	c0,0,23.673-14.519,32.825-20.832c29.037-19.883,73.855-47.342,73.855-85.85c0-34.717-30.3-50.184-62.178-50.184
	c-43.87,0-82.06,37.875-82.06,74.803c0,23.671,14.201,35.352,31.245,35.352c20.831,0,38.19-14.835,43.874-35.036l-2.527-0.946
	c-5.365,14.833-14.519,24.932-27.775,24.932c-12.31,0-17.674-10.729-17.674-27.458c0-45.134,24.619-66.28,46.083-66.28
	c18.305,0,27.142,14.519,27.142,46.081c0,43.24-34.401,76.696-67.86,106.681c-2.839,2.838-6.942,5.996-11.046,9.151
	c-9.783,7.26-21.46,9.786-21.46,17.677C329.672,254.945,333.775,258.101,337.877,258.101L337.877,258.101z"/>
<path fill="#C0081F" d="M548.059,285.837c44.818,0,83.01-35.351,83.01-96.58c0-60.916-38.191-96.267-83.01-96.267
	c-44.503,0-82.691,35.351-82.691,96.267C465.367,250.486,503.556,285.837,548.059,285.837 M548.059,282.047
	c-28.721,0-38.504-32.192-38.504-92.79c0-60.601,9.783-92.479,38.504-92.479c29.039,0,38.508,31.878,38.508,92.479
	C586.566,249.854,577.098,282.047,548.059,282.047"/>
<g>
	<g>
		<path d="M66.365,134.234l4.595-0.047c0.375,0,0.469-0.094,0.469-0.421v-30.619c0-0.282-0.094-0.421-0.469-0.421l-4.595-0.047
			v-0.469h14.864c7.876,0,12.098,2.767,12.098,8.674c0,5.909-5.298,8.676-11.958,8.676h-4.829v14.207
			c0,0.327,0.093,0.421,0.469,0.421l4.36,0.047v0.469H66.365V134.234z M81.135,118.995c2.298,0,3.845-0.329,4.877-1.266
			c1.408-1.313,1.782-3.704,1.782-6.847c0-2.906-0.469-5.204-1.782-6.563c-1.032-1.079-2.532-1.548-4.783-1.548h-4.688v16.224
			H81.135z"/>
		<path d="M115.465,128.326l-0.188-5.206c-0.14-3.891-2.578-4.688-5.673-4.688h-5.159v15.333c0,0.327,0.094,0.421,0.469,0.421
			l4.361,0.047v0.469H94.271v-0.469l4.596-0.047c0.375,0,0.469-0.094,0.469-0.421v-30.619c0-0.282-0.094-0.421-0.469-0.421
			l-4.596-0.047v-0.469h15.708c8.111,0,11.816,3.001,11.816,8.112c0,5.157-4.22,7.361-9.284,7.877v0.094
			c4.501,0.609,8.205,2.625,8.3,8.345c0.045,1.36,0.094,3.704,0.28,4.548c0.47,2.157,1.315,2.861,2.815,2.861
			c1.875,0,3.235-1.407,3.235-5.44h0.515c0,4.456-1.5,6.706-6.002,6.706C118.184,135.312,115.651,132.968,115.465,128.326z
			 M109.744,117.776c1.36,0,3.095-0.234,3.938-0.75c1.923-1.219,2.672-3.704,2.672-6.752c0-3.143-0.889-5.955-3.047-6.941
			c-0.843-0.374-2.532-0.562-3.985-0.562h-4.454c-0.283,0-0.423,0.14-0.423,0.421v14.583H109.744z"/>
	</g>
	<g>
		<path d="M129.046,134.234l4.596-0.047c0.375,0,0.469-0.14,0.469-0.421v-30.619c0-0.282-0.094-0.421-0.469-0.421l-4.596-0.047
			v-0.469h27.384v11.159h-0.469c-1.219-5.063-2.017-7.174-4.688-9.19c-0.986-0.75-3.143-1.359-5.815-1.359h-5.814
			c-0.28,0-0.421,0.14-0.421,0.421v14.91h1.782c2.015,0,3.704-0.234,4.547-0.984c1.173-1.079,2.392-3.095,2.392-6.002h0.516V125.7
			h-0.516c0-2.861-0.797-4.783-2.298-5.955c-0.938-0.75-2.672-1.032-4.642-1.032h-1.782v14.958c0,0.281,0.093,0.421,0.469,0.421
			h5.955c4.221,0,6.283-0.375,8.534-3.046c1.735-2.017,3.001-5.252,3.798-8.441h0.469v12.098h-29.4V134.234z M138.098,100.239
			l6.422-7.784h0.892l6.425,7.784l-0.189,0.14l-6.659-4.407l-6.705,4.407L138.098,100.239z"/>
		<path d="M167.41,104.365h-0.094v26.962c0,1.781,0.751,2.859,2.158,2.859l2.906,0.047v0.469h-10.877v-0.469l2.907-0.047
			c1.36,0,2.158-0.984,2.158-2.859V104.13c0-0.938-0.423-1.406-1.126-1.406l-3.938-0.047v-0.469h10.269l9.846,24.897h0.094
			l8.439-24.897h10.175v0.469l-3.938,0.047c-0.703,0-1.126,0.421-1.126,1.359v29.682c0,0.327,0.094,0.421,0.469,0.421l4.596,0.047
			v0.469h-15.239v-0.469l4.595-0.047c0.375,0,0.469-0.094,0.469-0.421v-29.4h-0.094l-10.222,30.432h-0.327L167.41,104.365z"/>
	</g>
	<g>
		<path d="M202.989,134.234l4.596-0.047c0.375,0,0.469-0.094,0.469-0.421v-30.619c0-0.327-0.094-0.421-0.469-0.421l-4.596-0.047
			v-0.469h15.239v0.469l-4.594,0.047c-0.376,0-0.469,0.094-0.469,0.421v30.619c0,0.327,0.093,0.421,0.469,0.421l4.594,0.047v0.469
			h-15.239V134.234z"/>
		<path d="M219.311,118.619c0-9.143,6.471-16.879,15.708-16.879c9.237,0,15.708,7.737,15.708,16.879
			c0,9.144-6.471,16.833-15.708,16.833C225.781,135.453,219.311,127.763,219.311,118.619z M239.425,133.718
			c3.282-2.156,5.486-7.502,5.486-15.099c0-7.595-2.204-12.988-5.486-15.145c-1.641-1.079-2.954-1.172-4.407-1.172
			c-1.455,0-2.767,0.093-4.407,1.172c-3.284,2.156-5.487,7.549-5.487,15.145c0,7.597,2.204,12.942,5.487,15.099
			c1.641,1.079,2.952,1.172,4.407,1.172C236.472,134.89,237.785,134.797,239.425,133.718z"/>
	</g>
</g>
<g>
	<g>
		<path d="M11.1,171.074c0-16.86,12.709-31.039,29.567-31.039c7.695,0,13.66,3.978,16.686,8.387h0.086l5.014-7.262h0.604v24.381
			h-0.863c-1.989-15.994-9.77-24.381-21.528-24.381c-2.508,0-5.533,0.173-8.559,2.162c-6.053,3.976-10.116,13.746-10.116,27.752
			c0,14.004,3.891,24.467,10.116,28.011c2.767,1.555,5.879,1.989,8.731,1.989c12.276,0,19.797-6.659,22.651-18.417l1.125,0.175
			c-3.199,14.35-13.141,19.365-24.121,19.365C23.463,202.197,11.1,187.934,11.1,171.074z"/>
		<path d="M65.992,199.948h8.472c0.692,0,0.865-0.346,0.865-0.863v-56.454c0-0.606-0.173-0.779-0.865-0.779l-8.472-0.087v-0.863
			H94.09v0.863l-8.474,0.087c-0.691,0-0.863,0.173-0.863,0.779v56.28c0,0.521,0.171,0.866,0.863,0.866h11.327
			c6.052,0,8.472-1.038,12.449-5.879c3.198-3.89,5.36-10.549,6.917-16.428h0.864v23.344H65.992V199.948z"/>
	</g>
	<g>
		<path d="M118.972,199.948l2.852-0.086c3.027-0.085,3.804-1.555,5.273-5.618l19.107-52.911h1.038l19.193,52.911
			c1.469,4.063,2.075,5.533,5.187,5.618l3.285,0.086v0.866H150.7v-0.866l4.15-0.086c3.112-0.085,2.854-1.643,1.729-5.102
			l-4.841-13.572h-18.674l-4.841,13.572c-1.21,3.373-1.383,4.931,1.729,5.017l4.15,0.171v0.866h-15.129V199.948z M151.305,180.151
			l-8.731-24.467h-0.26l-8.817,24.467H151.305z"/>
		<path d="M176.372,179.374v-36.743c0-0.606-0.174-0.779-0.866-0.779l-8.125-0.087v-0.863h27.751v0.863l-8.472,0.087
			c-0.692,0-0.865,0.173-0.865,0.779v37.521c0,14.524,3.373,20.058,17.031,20.058c7.954,0,12.97-3.63,15.391-8.386
			c1.555-3.026,2.161-7.091,2.161-11.844v-33.286c0-2.854-1.383-4.842-3.977-4.842l-5.36-0.087v-0.863h19.712v0.863l-5.102,0.087
			c-2.506,0-3.89,1.816-3.89,4.842v32.595c0,5.533-0.432,9.509-2.507,13.398c-2.854,5.533-8.82,9.165-18.502,9.165
			C183.98,201.852,176.372,196.059,176.372,179.374z"/>
	</g>
	<g>
		<path d="M232.443,199.948l8.385-0.086c0.691,0,0.952-0.26,0.952-0.777v-56.454c0-0.521-0.26-0.779-0.952-0.779l-8.385-0.087
			v-0.863h29.48c17.291,0,30.086,10.46,30.086,29.998c0,19.801-13.401,29.915-29.914,29.915h-29.653V199.948z M261.75,199.691
			c3.371,0,7.175-0.435,9.942-2.164c5.966-3.89,9.597-12.104,9.597-26.628c0-15.302-2.506-23.688-9.769-27.146
			c-2.681-1.298-6.312-1.815-10.634-1.815h-8.992c-0.519,0-0.691,0.259-0.691,0.777v56.195c0,0.521,0.173,0.78,0.865,0.78H261.75z"
			/>
		<path d="M291.138,199.948l8.473-0.086c0.692,0,0.865-0.171,0.865-0.777v-56.454c0-0.606-0.173-0.779-0.865-0.779l-8.473-0.087
			v-0.863h28.097v0.863l-8.471,0.087c-0.691,0-0.864,0.173-0.864,0.779v56.454c0,0.606,0.173,0.777,0.864,0.777l8.471,0.086v0.866
			h-28.097V199.948z"/>
	</g>
	<g>
		<path d="M320.381,199.948l2.853-0.086c3.026-0.085,3.804-1.555,5.273-5.618l19.108-52.911h1.038l19.191,52.911
			c1.471,4.063,2.075,5.533,5.188,5.618l3.287,0.086v0.866H352.11v-0.866l4.15-0.086c3.112-0.085,2.852-1.643,1.729-5.102
			l-4.841-13.572h-18.674l-4.841,13.572c-1.212,3.373-1.383,4.931,1.729,5.017l4.15,0.171v0.866h-15.13V199.948z M352.713,180.151
			l-8.731-24.467h-0.259l-8.818,24.467H352.713z"/>
	</g>
</g>
<g>
	<g>
		<path d="M628.648,222.424l1.649-0.052c1.751-0.051,2.199-0.9,3.05-3.246l11.045-30.587h0.6l11.095,30.587
			c0.849,2.346,1.199,3.195,2.998,3.246l1.899,0.052v0.497H646.99v-0.497l2.399-0.052c1.798-0.051,1.648-0.948,1-2.946l-2.801-7.848
			h-10.795l-2.798,7.848c-0.698,1.946-0.8,2.85,1,2.896l2.398,0.103v0.497h-8.746V222.424z M647.34,210.978l-5.048-14.142h-0.149
			l-5.099,14.142H647.34z"/>
		<path d="M669.677,192.638h-0.05v26.937c0,1.649,0.8,2.798,2.299,2.798l3.099,0.052v0.497H663.43v-0.497l3.147-0.052
			c1.449,0,2.251-1.049,2.251-2.798v-27.036c0-0.949,0-1.249-1.15-2.45c-0.9-0.948-1.65-1.148-3.5-1.248l-1.047-0.052v-0.497h10.044
			l19.24,25.136h0.101v-22.09c0-1.648-0.749-2.497-2.248-2.497l-3.149-0.052v-0.497h11.444v0.497l-2.999,0.052
			c-1.449,0-2.248,0.751-2.248,2.497v31.984h-0.45L669.677,192.638z"/>
	</g>
	<g>
		<path d="M699.598,205.781c0-9.745,6.897-17.99,16.742-17.99c9.844,0,16.742,8.245,16.742,17.99
			c0,9.746-6.898,17.943-16.742,17.943C706.495,223.725,699.598,215.527,699.598,205.781z M721.036,221.875
			c3.499-2.301,5.848-7.997,5.848-16.094s-2.349-13.844-5.848-16.142c-1.749-1.151-3.149-1.249-4.696-1.249
			c-1.55,0-2.948,0.098-4.699,1.249c-3.498,2.298-5.848,8.045-5.848,16.142s2.35,13.793,5.848,16.094
			c1.751,1.149,3.149,1.249,4.699,1.249C717.887,223.124,719.287,223.024,721.036,221.875z"/>
		<path d="M740.124,219.274h-0.15l-2.898,3.55h-0.199v-12.796h0.5c0.549,3.602,1.749,6.948,3.598,9.148
			c1.898,2.247,4.897,3.596,7.396,3.596c5.247,0,7.896-2.898,7.896-7.146c0-3.649-2.397-5.799-8.695-7.947
			c-5.548-1.85-10.295-4.296-10.295-10.743c0-5.447,4.098-9.146,9.645-9.146c4.049,0,6.798,2.249,8.245,4.098h0.15l2.35-3.649h0.3
			v11.295h-0.5c-1.199-6.448-4.848-11.144-10.595-11.144c-3.048,0-6.396,1.349-6.396,5.348c0,4.447,3.698,5.695,9.195,7.745
			c6.247,2.301,10.445,5.099,10.445,11.343c0,5.6-4.548,10.547-11.745,10.547C744.82,223.373,741.923,221.372,740.124,219.274z"/>
	</g>
</g>
<radialGradient id="SVGID_1_" cx="578.166" cy="160.2422" r="123.3707" gradientTransform="matrix(1 0 0 2 0 -160.2422)" gradientUnits="userSpaceOnUse">
	<stop  offset="0" style="stop-color:#000005"/>
	<stop  offset="1" style="stop-color:#FFFFFF"/>
</radialGradient>
<path fill="url(#SVGID_1_)" d="M661.808,82.355l-7.898-14.358c0,0-2.82-5.129,0.499-9.95l5.357-7.787c0,0,4.977-7.232,0.815-14.965
	l-0.959-1.78c0,0-3.94-7.324-15.626-7.324c-1.635,0-3.419,0.145-5.368,0.47l-21.575,3.618c0,0-14.432,2.418-2.232,10.5l15.024,9.951
	c0,0,8.555,5.667,5.018,5.667c-1.054,0-3.181-0.503-6.933-1.811L500.169,10.055c0,0-4.072-1.419-6.53-1.419
	c-2.465,0-3.307,1.425,3.196,7.136l113.271,99.445c0,0,9.828,8.628,9.309,21.827c-0.08,1.975-0.391,4.056-1.001,6.228
	L580.12,279.275l-2.997,10.646c0,0-3.174,11.27,7.79,15.376l16.323,6.116c0,0,1.168,0.435,2.094,0.435
	c1.083,0,1.838-0.595,0.027-3.175l-6.196-8.846c0,0-8.751-12.487-4.118-27.723c0.204-0.688,60.478-159.111,60.478-159.111
	s1.042-2.735,2.912-4.987l4.926-5.93C661.358,102.077,668.155,93.895,661.808,82.355z"/>
<radialGradient id="SVGID_2_" cx="605.1758" cy="208.1797" r="53.2994" gradientTransform="matrix(1 0 0 2 0 -208.1797)" gradientUnits="userSpaceOnUse">
	<stop  offset="0" style="stop-color:#290005"/>
	<stop  offset="1" style="stop-color:#7F0003"/>
</radialGradient>
<path fill="url(#SVGID_2_)" d="M619.412,137.09c-0.083,1.961-0.392,4.026-0.998,6.182l-38.293,135.999
	c4.521-1.968,8.842-4.383,12.935-7.2c0.364-1.046,20.293-53.462,37.175-97.85C628.663,160.154,624.896,147.729,619.412,137.09z"/>
</svg>
