<?xml version="1.0" encoding="utf-8"?>
<!-- Generator: Adobe Illustrator 16.0.4, SVG Export Plug-In . SVG Version: 6.00 Build 0)  -->
<!DOCTYPE svg PUBLIC "-//W3C//DTD SVG 1.1//EN" "http://www.w3.org/Graphics/SVG/1.1/DTD/svg11.dtd">
<svg version="1.1" id="Layer_1" xmlns="http://www.w3.org/2000/svg" xmlns:xlink="http://www.w3.org/1999/xlink" x="0px" y="0px"
	 width="842.281px" height="345.369px" viewBox="0 0 842.281 345.369" enable-background="new 0 0 842.281 345.369"
	 xml:space="preserve">
<g>
	<path fill="#C0081F" d="M367.982,279.704c10.807,0,8.019-16.389,17.433-25.451c4.532-4.531,9.064-6.625,16.037-6.625
		c5.579,0,11.856,2.439,15.343,4.531c14.643,8.02,33.821,27.197,59.273,27.197c31.729,0,49.508-25.451,49.508-82.635h-3.837
		c-0.695,25.105-8.713,41.492-34.513,41.492c-13.947,0-42.886-5.928-54.74-5.928c-12.206,0-21.27,2.793-31.729,8.021l-0.349-0.35
		c0,0,26.148-16.039,36.261-23.01c32.078-21.967,81.586-52.299,81.586-94.837c0-38.352-33.471-55.437-68.686-55.437
		c-48.462,0-90.649,41.837-90.649,82.631c0,26.15,15.688,39.051,34.517,39.051c23.012,0,42.186-16.387,48.465-38.702l-2.791-1.044
		c-5.927,16.386-16.038,27.542-30.683,27.542c-13.598,0-19.523-11.853-19.523-30.333c0-49.857,27.195-73.218,50.905-73.218
		c20.223,0,29.983,16.039,29.983,50.904c0,47.767-38.004,84.723-74.963,117.848c-3.136,3.137-7.668,6.623-12.202,10.111
		c-10.807,8.018-23.708,10.809-23.708,19.523C358.917,276.214,363.449,279.704,367.982,279.704L367.982,279.704z"/>
	<path fill="#C0081F" d="M600.163,310.343c49.51,0,91.698-39.051,91.698-106.691c0-67.291-42.188-106.341-91.698-106.341
		c-49.161,0-91.347,39.051-91.347,106.341C508.817,271.292,551.001,310.343,600.163,310.343 M600.163,306.157
		c-31.728,0-42.535-35.562-42.535-102.504c0-66.943,10.808-102.158,42.535-102.158c32.079,0,42.538,35.215,42.538,102.158
		C642.7,270.595,632.242,306.157,600.163,306.157"/>
	<g>
		<g>
			<defs>
				<path id="SVGID_1_" d="M661.221,339.075c-1.024,0-2.314-0.48-2.314-0.48l-18.03-6.756c-12.111-4.533-8.605-16.982-8.605-16.982
					l3.31-11.762c4.987-2.17,9.762-4.814,14.277-7.92c-5.119,16.828,4.548,30.621,4.548,30.621l6.845,9.771
					C663.249,338.419,662.415,339.075,661.221,339.075 M690.951,186.966c-1.736-15.53-5.903-29.245-11.965-40.992
					c0.575-14.58-10.282-24.109-10.282-24.109L543.577,12.01c-7.184-6.309-6.255-7.883-3.53-7.883c2.714,0,7.214,1.568,7.214,1.568
					L688.395,54.89c4.143,1.445,6.494,2,7.656,2c3.907,0-5.541-6.261-5.541-6.261l-16.597-10.995
					c-13.477-8.929,2.466-11.598,2.466-11.598l23.833-3.997c2.153-0.361,4.125-0.521,5.932-0.521
					c12.907,0,17.262,8.091,17.262,8.091l1.058,1.966c4.598,8.542-0.901,16.531-0.901,16.531l-5.918,8.603
					c-3.665,5.326-0.55,10.991-0.55,10.991l8.726,15.861c7.01,12.747-0.496,21.786-0.496,21.786l-5.442,6.551
					c-2.065,2.488-3.217,5.509-3.217,5.509L690.951,186.966"/>
			</defs>
			<clipPath id="SVGID_2_">
				<use xlink:href="#SVGID_1_"  overflow="visible"/>
			</clipPath>
			<g clip-path="url(#SVGID_2_)">
				<g>
					<defs>
						<rect id="SVGID_3_" x="536.394" y="4.126" width="196.435" height="334.949"/>
					</defs>
					<clipPath id="SVGID_4_">
						<use xlink:href="#SVGID_3_"  overflow="visible"/>
					</clipPath>
					<g transform="matrix(1 0 0 1 0 3.051758e-05)" clip-path="url(#SVGID_4_)">
						
							<image overflow="visible" enable-background="new    " width="262" height="439" xlink:href="745DB61050AC30A7.jpg"  transform="matrix(0.77 0 0 -0.7706 534.7698 341.2861)">
						</image>
					</g>
				</g>
			</g>
			<g clip-path="url(#SVGID_2_)">
				<g>
					<defs>
						<path id="SVGID_5_" d="M635.579,303.095l42.304-150.241c0.675-2.397,1.016-4.696,1.104-6.879
							c6.062,11.747,10.228,25.462,11.965,40.991l-40.31,105.916c-0.294,0.768-0.555,1.535-0.786,2.293
							C645.341,298.28,640.568,300.925,635.579,303.095"/>
					</defs>
					<clipPath id="SVGID_6_">
						<use xlink:href="#SVGID_5_"  overflow="visible"/>
					</clipPath>
					<g clip-path="url(#SVGID_6_)">
						
							<image overflow="visible" enable-background="new    " width="75" height="206" xlink:href="745DB61050AC30A5.jpg"  transform="matrix(0.7717 0 0 0.7781 634.1897 144.1035)">
						</image>
					</g>
				</g>
			</g>
		</g>
		<g>
			<g>
				<path d="M68.052,142.871l5.076-0.052c0.414,0,0.519-0.104,0.519-0.465V108.53c0-0.312-0.104-0.467-0.519-0.467l-5.076-0.051
					v-0.518h16.419c8.702,0,13.362,3.056,13.362,9.582c0,6.526-5.852,9.583-13.207,9.583h-5.335v15.694
					c0,0.361,0.103,0.465,0.518,0.465l4.816,0.052v0.517H68.052V142.871z M84.367,126.037c2.539,0,4.247-0.363,5.386-1.398
					c1.554-1.451,1.969-4.093,1.969-7.563c0-3.211-0.519-5.75-1.969-7.25c-1.139-1.192-2.796-1.71-5.283-1.71h-5.18v17.921
					L84.367,126.037L84.367,126.037z"/>
				<path d="M122.288,136.345l-0.208-5.751c-0.155-4.299-2.848-5.179-6.267-5.179h-5.697v16.938c0,0.361,0.103,0.465,0.518,0.465
					l4.816,0.052v0.517H98.876v-0.517l5.075-0.052c0.415,0,0.519-0.104,0.519-0.465v-33.824c0-0.312-0.103-0.467-0.519-0.467
					l-5.075-0.051v-0.518h17.351c8.961,0,13.053,3.315,13.053,8.96c0,5.697-4.661,8.131-10.256,8.702v0.104
					c4.973,0.673,9.064,2.899,9.168,9.22c0.052,1.502,0.104,4.091,0.311,5.024c0.518,2.383,1.45,3.161,3.108,3.161
					c2.072,0,3.573-1.555,3.573-6.01h0.57c0,4.922-1.657,7.408-6.63,7.408C125.293,144.063,122.496,141.472,122.288,136.345z
					 M115.969,124.69c1.502,0,3.418-0.259,4.351-0.829c2.124-1.347,2.953-4.092,2.953-7.459c0-3.471-0.983-6.577-3.366-7.667
					c-0.933-0.414-2.798-0.62-4.403-0.62h-4.92c-0.312,0-0.467,0.155-0.467,0.466v16.109L115.969,124.69L115.969,124.69z"/>
			</g>
			<g>
				<path d="M137.293,142.871l5.077-0.052c0.414,0,0.518-0.154,0.518-0.465V108.53c0-0.312-0.104-0.467-0.518-0.467l-5.077-0.051
					v-0.518h30.25v12.326h-0.518c-1.347-5.593-2.228-7.924-5.18-10.151c-1.088-0.83-3.471-1.502-6.424-1.502h-6.423
					c-0.31,0-0.465,0.155-0.465,0.466v16.47h1.967c2.227,0,4.092-0.258,5.024-1.087c1.295-1.192,2.642-3.42,2.642-6.631h0.57v16.058
					h-0.57c0-3.16-0.881-5.284-2.539-6.577c-1.036-0.829-2.952-1.14-5.127-1.14h-1.967v16.521c0,0.312,0.103,0.466,0.517,0.466
					h6.579c4.662,0,6.941-0.414,9.427-3.366c1.917-2.226,3.315-5.8,4.197-9.324h0.518v13.364h-32.478V142.871L137.293,142.871z
					 M147.29,105.319l7.096-8.599h0.984l7.097,8.599l-0.208,0.154l-7.355-4.869l-7.408,4.869L147.29,105.319z"/>
				<path d="M179.67,109.875h-0.103v29.785c0,1.967,0.829,3.159,2.382,3.159l3.212,0.052v0.517h-12.018v-0.517l3.211-0.052
					c1.501,0,2.383-1.087,2.383-3.159v-30.043c0-1.035-0.467-1.554-1.245-1.554l-4.35-0.051v-0.518h11.344l10.877,27.504h0.104
					l9.323-27.504h11.24v0.518l-4.35,0.051c-0.777,0-1.245,0.467-1.245,1.502v32.789c0,0.361,0.103,0.465,0.518,0.465l5.076,0.052
					v0.517h-16.834v-0.517l5.077-0.052c0.414,0,0.517-0.104,0.517-0.465v-32.479h-0.103l-11.292,33.616h-0.362L179.67,109.875z"/>
			</g>
			<g>
				<path d="M218.974,142.871l5.077-0.052c0.414,0,0.519-0.104,0.519-0.465V108.53c0-0.363-0.104-0.467-0.519-0.467l-5.077-0.051
					v-0.518h16.835v0.518l-5.076,0.051c-0.415,0-0.518,0.104-0.518,0.467v33.824c0,0.361,0.103,0.465,0.518,0.465l5.076,0.052v0.517
					h-16.835V142.871z"/>
				<path d="M237.004,125.622c0-10.1,7.147-18.646,17.351-18.646c10.205,0,17.353,8.546,17.353,18.646
					c0,10.102-7.148,18.595-17.353,18.595C244.151,144.218,237.004,135.724,237.004,125.622z M259.225,142.301
					c3.625-2.381,6.06-8.287,6.06-16.678c0-8.39-2.434-14.347-6.06-16.729c-1.814-1.192-3.263-1.295-4.87-1.295
					c-1.604,0-3.055,0.104-4.868,1.295c-3.626,2.382-6.06,8.339-6.06,16.729c0,8.392,2.434,14.297,6.06,16.678
					c1.813,1.192,3.264,1.295,4.868,1.295C255.962,143.596,257.411,143.492,259.225,142.301z"/>
			</g>
		</g>
		<g>
			<g>
				<path d="M7,183.567c0-18.626,14.039-34.289,32.662-34.289c8.5,0,15.09,4.395,18.433,9.265h0.095l5.54-8.022h0.667v26.933h-0.954
					c-2.197-17.668-10.792-26.933-23.781-26.933c-2.77,0-6.112,0.191-9.456,2.388c-6.685,4.391-11.173,15.185-11.173,30.656
					c0,15.471,4.297,27.029,11.173,30.943c3.056,1.719,6.494,2.197,9.647,2.197c13.561,0,21.87-7.355,25.022-20.344l1.241,0.191
					c-3.533,15.854-14.516,21.393-26.646,21.393C20.656,217.948,7,202.19,7,183.567z"/>
				<path d="M67.637,215.464h9.36c0.764,0,0.955-0.381,0.955-0.953v-62.364c0-0.669-0.19-0.861-0.955-0.861l-9.36-0.096v-0.954
					h31.04v0.954l-9.36,0.096c-0.764,0-0.956,0.191-0.956,0.861v62.173c0,0.572,0.191,0.953,0.956,0.953h12.511
					c6.686,0,9.361-1.145,13.753-6.492c3.533-4.299,5.921-11.652,7.64-18.146h0.956v25.787H67.637V215.464z"/>
			</g>
			<g>
				<path d="M126.162,215.464l3.152-0.096c3.342-0.096,4.203-1.717,5.826-6.207l21.106-58.448h1.146l21.203,58.448
					c1.623,4.49,2.292,6.111,5.729,6.207l3.629,0.096v0.957h-26.74v-0.957l4.584-0.096c3.438-0.096,3.151-1.814,1.91-5.635
					l-5.347-14.994h-20.63l-5.348,14.994c-1.336,3.725-1.528,5.445,1.911,5.539l4.583,0.191v0.955h-16.713L126.162,215.464
					L126.162,215.464z M161.882,193.595l-9.646-27.028h-0.287l-9.741,27.028H161.882z"/>
				<path d="M189.571,192.735v-40.589c0-0.669-0.191-0.86-0.955-0.86l-8.978-0.096v-0.954h30.656v0.954l-9.359,0.096
					c-0.764,0-0.956,0.191-0.956,0.86v41.447c0,16.047,3.724,22.156,18.815,22.156c8.786,0,14.326-4.01,17-9.264
					c1.719-3.344,2.387-7.83,2.387-13.082v-36.77c0-3.152-1.527-5.349-4.394-5.349l-5.92-0.096v-0.954h21.774v0.954l-5.634,0.096
					c-2.77,0-4.299,2.007-4.299,5.349v36.004c0,6.113-0.478,10.504-2.77,14.803c-3.153,6.111-9.742,10.125-20.438,10.125
					C197.975,217.565,189.571,211.167,189.571,192.735z"/>
			</g>
			<g>
				<path d="M251.511,215.464l9.264-0.096c0.764,0,1.049-0.285,1.049-0.857v-62.364c0-0.575-0.286-0.861-1.049-0.861l-9.264-0.096
					v-0.954h32.567c19.1,0,33.235,11.556,33.235,33.14c0,21.871-14.803,33.043-33.043,33.043h-32.758L251.511,215.464
					L251.511,215.464z M283.886,215.179c3.725,0,7.927-0.477,10.983-2.389c6.59-4.297,10.6-13.369,10.6-29.414
					c0-16.904-2.769-26.167-10.791-29.988c-2.959-1.433-6.972-2.005-11.746-2.005H273c-0.572,0-0.764,0.286-0.764,0.858v62.078
					c0,0.572,0.192,0.859,0.957,0.859H283.886z"/>
				<path d="M316.35,215.464l9.359-0.096c0.764,0,0.956-0.189,0.956-0.857v-62.364c0-0.669-0.191-0.861-0.956-0.861l-9.359-0.096
					v-0.954h31.039v0.954l-9.359,0.096c-0.764,0-0.955,0.191-0.955,0.861v62.364c0,0.668,0.191,0.857,0.955,0.857l9.359,0.096v0.957
					H316.35V215.464z"/>
			</g>
			<g>
				<path d="M348.653,215.464l3.152-0.096c3.342-0.096,4.203-1.717,5.825-6.207l21.108-58.448h1.145l21.202,58.448
					c1.624,4.49,2.292,6.111,5.731,6.207l3.63,0.096v0.957h-26.742v-0.957l4.586-0.096c3.437-0.096,3.15-1.814,1.909-5.635
					l-5.348-14.994h-20.627l-5.349,14.994c-1.337,3.725-1.528,5.445,1.91,5.539l4.585,0.191v0.955h-16.714v-0.955H348.653z
					 M384.371,193.595l-9.647-27.028h-0.285l-9.741,27.028H384.371z"/>
			</g>
		</g>
		<g>
			<g>
				<path d="M689.188,240.294l1.82-0.059c1.936-0.057,2.43-0.996,3.369-3.588l12.201-33.785h0.663l12.256,33.785
					c0.938,2.592,1.325,3.531,3.313,3.588l2.099,0.059v0.549h-15.461v-0.549l2.652-0.059c1.983-0.057,1.819-1.047,1.105-3.258
					l-3.095-8.666h-11.926l-3.09,8.666c-0.771,2.152-0.884,3.15,1.105,3.201l2.647,0.115v0.549h-9.66L689.188,240.294
					L689.188,240.294z M709.835,227.647l-5.577-15.621h-0.164l-5.632,15.621H709.835z"/>
				<path d="M734.511,207.386h-0.056v29.76c0,1.82,0.884,3.09,2.541,3.09l3.422,0.059v0.549H727.61v-0.549l3.478-0.059
					c1.601,0,2.486-1.16,2.486-3.09V207.28c0-1.049,0-1.381-1.271-2.707c-0.994-1.049-1.822-1.271-3.865-1.379l-1.156-0.059v-0.549
					h11.094l21.256,27.768h0.108v-24.402c0-1.82-0.826-2.758-2.482-2.758l-3.479-0.059v-0.549h12.643v0.549l-3.314,0.059
					c-1.602,0-2.484,0.828-2.484,2.758v35.33h-0.496L734.511,207.386z"/>
			</g>
			<g>
				<path d="M767.562,221.909c0-10.768,7.621-19.877,18.497-19.877c10.874,0,18.494,9.109,18.494,19.877
					c0,10.764-7.62,19.816-18.494,19.816C775.183,241.726,767.562,232.673,767.562,221.909z M791.247,239.685
					c3.862-2.541,6.46-8.834,6.46-17.775c0-8.945-2.597-15.293-6.46-17.834c-1.935-1.271-3.48-1.379-5.188-1.379
					c-1.711,0-3.257,0.107-5.192,1.379c-3.862,2.541-6.459,8.889-6.459,17.834c0,8.941,2.596,15.236,6.459,17.775
					c1.936,1.271,3.481,1.379,5.192,1.379C787.767,241.063,789.313,240.956,791.247,239.685z"/>
				<path d="M812.331,236.813h-0.166l-3.202,3.92h-0.221v-14.133h0.551c0.606,3.977,1.934,7.674,3.978,10.102
					c2.095,2.486,5.409,3.975,8.168,3.975c5.797,0,8.723-3.199,8.723-7.893c0-4.031-2.647-6.404-9.605-8.779
					c-6.129-2.043-11.372-4.748-11.372-11.869c0-6.018,4.526-10.104,10.654-10.104c4.472,0,7.508,2.486,9.107,4.529h0.167
					l2.594-4.031h0.332v12.477h-0.552c-1.325-7.121-5.356-12.311-11.704-12.311c-3.367,0-7.065,1.49-7.065,5.908
					c0,4.91,4.086,6.291,10.159,8.555c6.899,2.541,11.536,5.631,11.536,12.531c0,6.186-5.023,11.648-12.974,11.648
					C817.522,241.339,814.318,239.13,812.331,236.813z"/>
			</g>
		</g>
	</g>
</g>
</svg>
