<?xml version="1.0" encoding="utf-8"?>
<!-- Generator: Adobe Illustrator 16.0.4, SVG Export Plug-In . SVG Version: 6.00 Build 0)  -->
<!DOCTYPE svg PUBLIC "-//W3C//DTD SVG 1.1//EN" "http://www.w3.org/Graphics/SVG/1.1/DTD/svg11.dtd">
<svg version="1.1" id="Layer_3" xmlns="http://www.w3.org/2000/svg" xmlns:xlink="http://www.w3.org/1999/xlink" x="0px" y="0px"
	 width="1278px" height="611.15px" viewBox="0 0 1278 611.15" enable-background="new 0 0 1278 611.15" xml:space="preserve">
<polygon fill="#FFFFFF" points="639.371,611.15 462.853,305.575 286.333,0 639.371,0 992.411,0 815.892,305.575 "/>
<polygon opacity="0.8" fill="#FFFFFF" points="1090.012,569.15 1026.814,459.576 963.613,350 1090.012,350 1216.411,350 
	1153.211,459.576 "/>
<polygon opacity="0.8" fill="#FFFFFF" points="858.69,527.151 839.153,493.576 819.612,460 858.69,460 897.769,460 878.229,493.576 
	"/>
<polygon opacity="0.7" fill="#FFFFFF" points="385.806,589.15 314.212,465.076 242.613,341 385.806,341 529,341 457.402,465.076 "/>
<polygon opacity="0.8" fill="#FFFFFF" points="361.297,322.151 328.957,266.076 296.613,210 361.297,210 425.983,210 
	393.64,266.076 "/>
<polygon opacity="0.8" fill="#FFFFFF" points="193.105,202.107 256.849,312.553 320.597,423 193.105,423 65.613,423 
	129.359,312.553 "/>
<polygon opacity="0.8" fill="#FFFFFF" points="158.776,460.878 177.856,493.939 196.939,527 158.776,527 120.613,527 
	139.694,493.939 "/>
<polygon opacity="0.7" fill="#FFFFFF" points="945.988,125.877 1033.168,276.94 1120.361,428 945.988,428 771.615,428 858.8,276.94 
	"/>
<polygon opacity="0.8" fill="#FFFFFF" points="997.276,450.498 1030.605,508.25 1063.939,566 997.276,566 930.613,566 
	963.944,508.25 "/>
<polygon fill="#FFFFFF" points="1082.358,209 988.072,372.221 878.442,562 881.664,562 991.368,372.139 1085.631,209 "/>
<polygon fill="#FFFFFF" points="1150.358,126 1056.072,289.221 946.442,479 949.664,479 1059.368,289.139 1153.631,126 "/>
<polygon fill="#FFFFFF" points="15.716,101 110.002,264.221 219.632,454 216.41,454 106.706,264.139 12.443,101 "/>
<polygon fill="#FFFFFF" points="54.716,205 149.002,368.221 258.632,558 255.41,558 145.706,368.139 51.443,205 "/>
</svg>
