<?xml version="1.0" encoding="utf-8"?>
<!-- Generator: Adobe Illustrator 16.0.0, SVG Export Plug-In . SVG Version: 6.00 Build 0)  -->
<!DOCTYPE svg PUBLIC "-//W3C//DTD SVG 1.1//EN" "http://www.w3.org/Graphics/SVG/1.1/DTD/svg11.dtd">
<svg version="1.1" id="Layer_1" xmlns="http://www.w3.org/2000/svg" xmlns:xlink="http://www.w3.org/1999/xlink" x="0px" y="0px"
	 width="270px" height="120px" viewBox="0 0 270 120" enable-background="new 0 0 270 120" xml:space="preserve">
<path fill="#FFFFFF" d="M2.907,95.47c0,7.58,6.144,13.727,13.72,13.727h232.34c7.582,0,13.726-6.146,13.726-13.727V46.11
	c0-7.568-6.144-13.717-13.726-13.717L16.627,16.5c-7.576,0-13.72,6.146-13.72,13.729V95.47z"/>
<path fill="#D0242E" d="M5.907,92.469c0,7.58,6.144,13.727,13.72,13.727h232.34c7.582,0,13.726-6.146,13.726-13.727V43.109
	c0-7.568-6.144-13.717-13.726-13.717L19.627,13.5c-7.576,0-13.72,6.146-13.72,13.729V92.469z"/>
<text transform="matrix(1 0 0 1 31 77.8477)" fill="#FFFFFF" font-family="'Grumpy-Black24'" font-size="40" letter-spacing="2">COMEÇAR</text>
</svg>
