<?xml version="1.0" encoding="utf-8"?>
<!-- Generator: Adobe Illustrator 16.0.0, SVG Export Plug-In . SVG Version: 6.00 Build 0)  -->
<!DOCTYPE svg PUBLIC "-//W3C//DTD SVG 1.1//EN" "http://www.w3.org/Graphics/SVG/1.1/DTD/svg11.dtd">
<svg version="1.1" id="Layer_1" xmlns="http://www.w3.org/2000/svg" xmlns:xlink="http://www.w3.org/1999/xlink" x="0px" y="0px"
	 width="40px" height="112px" viewBox="0 0 40 112" enable-background="new 0 0 40 112" xml:space="preserve">
<path d="M38.727,19.292c0,10.335-8.383,18.725-18.73,18.725c-10.342,0-18.73-8.39-18.73-18.725c0-10.354,8.389-18.737,18.73-18.737
	C30.344,0.555,38.727,8.938,38.727,19.292z"/>
<rect x="0.518" y="54.497" width="38.965" height="7.498"/>
<rect x="0.518" y="70.988" width="38.965" height="7.489"/>
<rect x="0.518" y="87.471" width="38.965" height="7.488"/>
<rect x="0.518" y="103.956" width="38.965" height="7.488"/>
<g>
	<polygon fill="#EB212E" points="15.977,32.836 26.794,31.244 26.794,6.836 13.207,6.836 15.977,32.836 	"/>
	<path fill="#FFFFFF" d="M18.013,10.046h5.578l-0.932,14.198h-3.234L18.013,10.046L18.013,10.046z M18.344,25.635h5.218v5.327
		h-5.218V25.635L18.344,25.635z"/>
</g>
</svg>
