<?xml version="1.0" encoding="utf-8"?>
<!-- Generator: Adobe Illustrator 16.0.0, SVG Export Plug-In . SVG Version: 6.00 Build 0)  -->
<!DOCTYPE svg PUBLIC "-//W3C//DTD SVG 1.1//EN" "http://www.w3.org/Graphics/SVG/1.1/DTD/svg11.dtd">
<svg version="1.1" id="Layer_1" xmlns="http://www.w3.org/2000/svg" xmlns:xlink="http://www.w3.org/1999/xlink" x="0px" y="0px"
	 width="510px" height="280px" viewBox="0 0 510 280" enable-background="new 0 0 510 280" xml:space="preserve">
<path fill="#D0242E" d="M491.026,171.346c0,7.58-6.145,13.727-13.721,13.727H291.971c-7.582,0-13.726-6.146-13.726-13.727v-46.36
	c0-7.568,6.144-13.717,13.726-13.717l185.336-33.892c7.576,0,13.721,6.145,13.721,13.726L491.026,171.346L491.026,171.346z"/>
<g>
	<path d="M24.874,261.746c0,7.632,6.186,13.82,13.813,13.82h256.079c7.633,0,13.82-6.188,13.82-13.82V51.736
		c0-7.623-6.188-13.815-13.82-13.815L38.687,3.798c-7.627,0-13.813,6.186-13.813,13.818V261.746z"/>
	<path fill="#FFFFFF" d="M289.893,245.146c0,7.58-6.145,13.727-13.721,13.727H21.842c-7.581,0-13.725-6.146-13.725-13.727V98.777
		c0-7.567,6.145-13.717,13.725-13.717l254.33-33.892c7.576,0,13.721,6.145,13.721,13.726V245.146z"/>
	<path d="M24.388,256.794h249.239c7.424,0,13.448-6.019,13.448-13.452V66.694c0,0-4.255,169.283-4.638,176.199
		c-0.386,6.916-5.381,8.838-8.84,9.605C270.137,253.271,24.388,256.794,24.388,256.794z"/>
	<path d="M252.125,235.092c0,6.532-5.296,11.833-11.835,11.833H32.54c-6.536,0-11.829-5.301-11.829-11.833V108.839
		C20.711,102.308,26.004,97,32.54,97l207.75-26.137c6.539,0,11.835,5.301,11.835,11.836V235.092L252.125,235.092z"/>
	<g>
		<g>
			<path fill="#FFFFFF" d="M75.126,133.599v4.13c0,5.08-2.449,7.849-7.44,7.849h-2.358v11.927h-4.989V125.75h7.347
				C72.678,125.75,75.126,128.518,75.126,133.599z M65.328,130.288v10.746h2.358c1.589,0,2.451-0.72,2.451-2.99v-4.762
				c0-2.268-0.862-2.994-2.451-2.994H65.328z"/>
			<path fill="#FFFFFF" d="M86.965,157.504c-0.271-0.816-0.452-1.314-0.452-3.904v-4.986c0-2.949-0.997-4.035-3.269-4.035h-1.72
				v12.927h-4.99V125.75h7.528c5.174,0,7.395,2.402,7.395,7.304v2.492c0,3.271-1.041,5.354-3.265,6.399v0.091
				c2.493,1.043,3.309,3.401,3.309,6.716v4.896c0,1.541,0.049,2.678,0.546,3.855H86.965L86.965,157.504z M81.524,130.288v9.751
				h1.948c1.862,0,2.996-0.816,2.996-3.354v-3.133c0-2.269-0.774-3.264-2.542-3.264H81.524z"/>
			<path fill="#FFFFFF" d="M98.851,139.134h6.85v4.536h-6.85v9.299h8.618v4.535h-13.61V125.75h13.61v4.538h-8.618V139.134z
				 M94.314,124.073l4.037-5.036h4.491l4.037,5.036h-4.263l-2.042-2.498l-1.995,2.498H94.314z"/>
			<path fill="#FFFFFF" d="M120.17,148.294h0.09l3.358-22.544h6.94v31.754h-4.719v-22.767h-0.088l-3.359,22.767h-4.715l-3.63-22.452
				h-0.091v22.452h-4.357V125.75h6.943L120.17,148.294z"/>
			<path fill="#FFFFFF" d="M133.278,125.75h4.989v31.754h-4.989V125.75z"/>
			<path fill="#FFFFFF" d="M140.58,133.372c0-5.082,2.678-7.984,7.578-7.984c4.898,0,7.576,2.902,7.576,7.984v16.513
				c0,5.076-2.677,7.982-7.576,7.982c-4.899,0-7.578-2.906-7.578-7.982V133.372z M145.573,150.199c0,2.268,0.999,3.13,2.585,3.13
				c1.588,0,2.582-0.862,2.582-3.13v-17.146c0-2.27-0.994-3.127-2.582-3.127c-1.586,0-2.585,0.857-2.585,3.127V150.199z"/>
		</g>
		<g>
			<polygon fill="#EB212E" points="160.367,200.826 178.442,198.167 178.442,157.382 155.74,157.382 			"/>
			<path fill="#FFFFFF" d="M41.687,182.271c0-1.023-0.051-2.252-0.4-3.225c-0.401-1.021-1.053-1.738-2.356-1.738
				c-2.704,0-3.004,3.375-3.004,8.487c0,5.783,0.903,7.675,3.004,7.675c2.856,0,3.109-2.965,3.109-4.91l6.313,0.92
				c-0.601,6.24-4.108,9.513-10.023,9.513c-7.314,0-11.123-6.548-11.123-12.89c0-7.006,3.808-14.008,11.475-14.008
				c8.621,0,9.921,7.621,9.921,10.176H41.687L41.687,182.271z"/>
			<path fill="#FFFFFF" d="M59.79,171.309c7.569,0,11.331,5.676,11.331,13.344c0,7.981-3.612,13.556-11.331,13.556
				c-7.711,0-11.323-5.573-11.323-13.556C48.466,176.984,52.225,171.309,59.79,171.309L59.79,171.309z M59.79,192.991
				c2.01,0,2.911-1.843,2.911-8.341c0-5.928-0.602-8.129-2.911-8.129c-2.302,0-2.902,2.201-2.902,8.129
				C56.887,191.148,57.789,192.991,59.79,192.991L59.79,192.991z"/>
			<path fill="#FFFFFF" d="M71.72,171.964h8.121v3.429h0.099c1.702-2.611,4.259-4.041,7.165-4.041c3.256,0,5.362,2.246,5.362,5.778
				v20.504h-8.115v-18.155c0-1.379-0.452-2.297-1.958-2.297c-0.854,0-1.553,0.355-2.102,1.068l-0.451,0.619v18.765H71.72V171.964
				L71.72,171.964z"/>
			<path fill="#FFFFFF" d="M96.222,177.82h-3.306v-5.828h3.306v-9.204h8.117v9.204h4.465v5.828h-4.465v10.893
				c0,1.794,0,3.118,2.606,3.118c0.65,0,1.302-0.103,1.859-0.251v6.031c-1.606,0.457-3.962,0.662-5.715,0.662
				c-4.313,0-6.866-1.893-6.866-6.491L96.222,177.82L96.222,177.82z"/>
			<path fill="#FFFFFF" d="M110.086,171.964h8.119v25.67h-8.119V171.964L110.086,171.964z M110.086,162.807h8.119v7.359h-8.119
				V162.807L110.086,162.807z"/>
			<path fill="#FFFFFF" d="M151.614,171.357c7.566,0,11.325,5.672,11.325,13.351c0,7.976-3.608,13.549-11.325,13.549
				c-7.719,0-11.328-5.573-11.328-13.549C140.287,177.029,144.048,171.357,151.614,171.357L151.614,171.357z M151.614,193.039
				c2.004,0,2.904-1.842,2.904-8.331c0-5.935-0.6-8.132-2.904-8.132c-2.303,0-2.91,2.197-2.91,8.132
				C148.705,191.197,149.61,193.039,151.614,193.039L151.614,193.039z"/>
			<path fill="#FFFFFF" d="M163.771,162.743h9.323l-1.556,23.729h-5.407L163.771,162.743L163.771,162.743z M164.324,188.794h8.722
				v8.901h-8.722V188.794L164.324,188.794z"/>
			<path fill="#FFFFFF" d="M143.322,176.371c-0.751-0.721-1.704-1.33-2.856-1.33c-0.602,0-1.15,0.253-1.352,0.562
				c0.952,1.125,1.203,2.713,1.203,4.188c0,5.068-5.462,7.574-9.923,7.574c-1.553,0-2.557-0.207-3.458-0.412
				c-0.201,0.256-0.853,0.972-0.853,1.484c0,1.842,2.205,1.842,5.062,1.842c4.813,0,11.272,0.611,11.272,7.06
				c0,5.263-5.057,7.974-12.473,7.974c-2.857,0-11.678-0.406-11.678-5.319c0-2.757,2.454-4.088,4.762-4.496v-0.103
				c-2.004-0.666-3.56-1.84-3.56-4.196c0-2.505,2.807-4.396,4.91-4.905v-0.105c-3.156-1.377-4.709-3.834-4.709-6.75
				c0-5.826,6.167-8.078,10.275-8.078c2.405,0,5.061,0.563,6.961,1.841c0.603-1.431,4.013-3.374,6.416-3.374L143.322,176.371
				L143.322,176.371z M124.579,198.77c0,2.096,3.761,2.25,5.366,2.25c1.902,0,5.561,0,5.561-2.25c0-2.355-4.06-2.355-5.561-2.355
				C128.791,196.413,124.579,196.413,124.579,198.77L124.579,198.77z M127.185,179.592c0,1.842,0.652,4.094,2.76,4.094
				c2.252,0,2.853-2.354,2.853-4.451c0-1.992-0.751-4.192-2.853-4.192C127.688,175.041,127.185,177.646,127.185,179.592
				L127.185,179.592z"/>
		</g>
		<g>
			<path fill="#FFFFFF" d="M26.864,129.817c3.836,0,4.69-1.849,5.463-3.968h3.336v31.59H30.7v-24.104h-3.836V129.817z"/>
			<path fill="#FFFFFF" d="M52.635,125.85v4.331l-7.314,27.258h-4.962l7.267-27.079h-9.884v-4.511H52.635z"/>
			<path fill="#FFFFFF" d="M53.858,132.302c0-1.309,0.693-2.077,1.986-2.077c1.292,0,1.985,0.769,1.985,2.077v2.902
				c0,1.317-0.693,2.081-1.985,2.081c-1.292,0-1.986-0.764-1.986-2.081V132.302z M57.829,138.054v1.293h-3.971v-1.293H57.829z
				 M55.169,135.281c0,0.601,0.244,0.808,0.675,0.808c0.412,0,0.672-0.207,0.672-0.808v-3.05c0-0.602-0.26-0.807-0.672-0.807
				c-0.431,0-0.675,0.205-0.675,0.807V135.281z"/>
		</g>
		<g>
			<path fill="#FFFFFF" d="M180.776,157.329h31.188v9.177h-10.547v55.04h-10.088v-55.04h-10.553V157.329L180.776,157.329z"/>
			<path fill="#FFFFFF" d="M231.5,209.709h0.184l7.612-52.38h9.265l-9.905,64.217h-15.044l-9.91-64.217h10.186L231.5,209.709z"/>
		</g>
		<g>
			<path fill="#FFFFFF" d="M160.408,202.871h4.652c2.946,0,4.39,1.633,4.39,4.631v9.467c0,2.995-1.444,4.627-4.39,4.627h-4.652
				V202.871z M163.35,205.546v13.37h1.66c0.935,0,1.498-0.479,1.498-1.816v-9.732c0-1.338-0.563-1.82-1.498-1.82L163.35,205.546
				L163.35,205.546z"/>
			<path fill="#FFFFFF" d="M173.315,210.762h4.039v2.678h-4.039v5.478h5.081v2.679h-8.022v-18.724h8.022v2.675h-5.081V210.762z"/>
		</g>
	</g>
	<path d="M282.145,134.16c0,6.679-5.416,12.1-12.103,12.1c-6.685,0-12.103-5.421-12.103-12.1c0-6.69,5.418-12.106,12.103-12.106
		C276.729,122.054,282.145,127.47,282.145,134.16z"/>
	<rect x="257.456" y="156.91" width="25.177" height="4.845"/>
	<rect x="257.456" y="167.566" width="25.177" height="4.836"/>
	<rect x="257.456" y="178.216" width="25.177" height="4.839"/>
	<rect x="257.456" y="188.867" width="25.177" height="4.837"/>
	<path fill="#FFFFFF" d="M98.297,83.115c-0.083-0.953-0.126-1.919-0.126-2.896c0-18.183,14.736-32.922,32.922-32.922
		c15.91,0,29.186,11.288,32.251,26.29L98.297,83.115z"/>
	<polygon fill="#FFFFFF" points="131.983,61.708 128.565,65.13 89.532,26.106 92.958,22.682 	"/>
	
		<rect x="150.459" y="16.312" transform="matrix(0.7074 0.7068 -0.7068 0.7074 75.7653 -95.209)" fill="#FFFFFF" width="4.841" height="55.191"/>
</g>
<text transform="matrix(1 0 0 1 339.8984 137.7295)"><tspan x="0" y="0" fill="#FFFFFF" font-family="'BebasNeueRegular'" font-size="38">vote até </tspan><tspan x="-7.05" y="35" fill="#FFFFFF" font-family="'BebasNeueBold'" font-size="38">15</tspan><tspan x="23.046" y="35" fill="#FFFFFF" font-family="'BebasNeueRegular'" font-size="38"> de maio</tspan></text>
</svg>
